G04*
G04 #@! TF.GenerationSoftware,Altium Limited,Altium Designer,22.3.1 (43)*
G04*
G04 Layer_Physical_Order=2*
G04 Layer_Color=16711680*
%FSLAX44Y44*%
%MOMM*%
G71*
G04*
G04 #@! TF.SameCoordinates,4B90D417-7196-441A-B007-7CACEF84B99C*
G04*
G04*
G04 #@! TF.FilePolarity,Positive*
G04*
G01*
G75*
%ADD11C,0.2540*%
%ADD24R,0.7000X0.9000*%
%ADD28R,0.9000X0.8000*%
%ADD52C,0.4000*%
%ADD53C,0.2032*%
%ADD55C,0.4030*%
%ADD56C,0.5000*%
%ADD57R,1.5080X1.5080*%
%ADD58C,1.5080*%
%ADD59C,1.3500*%
%ADD60R,1.3500X1.3500*%
%ADD61R,1.3980X1.3980*%
%ADD62C,1.3980*%
%ADD63C,0.2500*%
%ADD64R,1.0000X1.5000*%
%ADD65O,1.0000X1.5000*%
%ADD66C,0.9000*%
%ADD67C,0.6000*%
%ADD68R,0.9000X0.7000*%
%ADD69R,3.5240X1.5240*%
%ADD70R,2.6000X0.7000*%
%ADD71R,2.4100X3.1000*%
%ADD72O,1.4000X0.5500*%
%ADD73R,1.0000X0.8000*%
%ADD74R,0.7000X1.5000*%
%ADD75R,1.1000X1.3000*%
%ADD76R,1.7000X1.0000*%
%ADD77R,0.9000X0.5000*%
%ADD78R,1.6500X2.4000*%
%ADD79R,0.5000X0.9000*%
%ADD80R,1.0000X0.6000*%
%ADD81R,0.6800X0.6000*%
%ADD82R,5.6000X2.1000*%
%ADD83O,0.4500X1.1500*%
%ADD84R,0.8000X0.9000*%
%ADD85R,3.2000X0.9500*%
%ADD86R,1.8500X0.9000*%
%ADD87R,1.3000X1.6500*%
%ADD88R,0.8000X1.5500*%
D11*
X59500Y291750D02*
X80000D01*
X90000Y281750D01*
X53625Y285875D02*
X59500Y291750D01*
X47750Y280000D02*
X53625Y285875D01*
D24*
X-140301Y57168D02*
D03*
X-156301D02*
D03*
X232000Y-60000D02*
D03*
X248000D02*
D03*
X47750Y280000D02*
D03*
X32250D02*
D03*
D28*
X90000Y298250D02*
D03*
Y281750D02*
D03*
D52*
X160000Y396014D02*
G03*
X156000Y400000I-4000J-14D01*
G01*
Y272500D02*
G03*
X160000Y276500I0J4000D01*
G01*
X-111932Y459831D02*
G03*
X-111934Y459830I1151J-3831D01*
G01*
X-110780Y460000D02*
G03*
X-111932Y459831I0J-4000D01*
G01*
X-115539Y458716D02*
G03*
X-117020Y457778I1348J-3766D01*
G01*
X-133986Y300000D02*
G03*
X-130000Y304000I-14J4000D01*
G01*
X-269861Y360116D02*
G03*
X-270135Y359865I2561J-3073D01*
G01*
X-287090Y342910D02*
G03*
X-288250Y340107I2840J-2817D01*
G01*
X-175438Y306828D02*
G03*
X-172609Y300000I2828J-2828D01*
G01*
X-115062Y458881D02*
G03*
X-115248Y458820I1161J-3828D01*
G01*
X91750Y300000D02*
G03*
X90000Y298250I0J-1750D01*
G01*
X-75785Y364128D02*
G03*
X-76956Y366956I-4000J0D01*
G01*
X-79785Y280000D02*
G03*
X-75785Y284000I0J4000D01*
G01*
X-317488Y219277D02*
G03*
X-318872Y219545I-1441J-3731D01*
G01*
X31350Y402343D02*
X33693Y400000D01*
X-17657Y450000D02*
X27657D01*
X30202Y430000D02*
Y437641D01*
X33693Y400000D02*
X75653D01*
X27657Y450000D02*
X30000Y447657D01*
X31350Y402343D02*
Y430000D01*
X30000Y437843D02*
X30202Y437641D01*
X30000Y437843D02*
Y447657D01*
X-20000Y452343D02*
X-17657Y450000D01*
X-20000Y452343D02*
Y460000D01*
X4925Y319134D02*
X10000Y324209D01*
Y350000D01*
X4925Y310634D02*
Y319134D01*
Y310634D02*
X10000Y305560D01*
Y280000D02*
Y305560D01*
X160000Y310000D02*
Y396014D01*
X130000Y310000D02*
X160000D01*
X92063Y272500D02*
X156000D01*
X130750Y90000D02*
X181027D01*
X167250Y-3539D02*
X193250D01*
X160750D02*
X167250D01*
Y-15500D02*
Y-3539D01*
X-110780Y460000D02*
X-101611D01*
X-111934Y459830D02*
X-111932Y459831D01*
X-115062Y458881D02*
X-111934Y459830D01*
X-115539Y458716D02*
X-115248Y458820D01*
X-130000Y342343D02*
Y387657D01*
X-140000Y300000D02*
X-133986D01*
X-172609D02*
X-140000D01*
X-180744Y424066D02*
X-180134Y424228D01*
X-182046Y423721D02*
X-180744Y424066D01*
X-180134Y424228D01*
X-193695Y420633D02*
X-180744Y424066D01*
X-270135Y359865D02*
X-270135Y359865D01*
X-287090Y342910D02*
X-270135Y359865D01*
X-287090Y342910D02*
X-287090Y342910D01*
X-288250Y320000D02*
Y340107D01*
X71547Y272500D02*
X92063D01*
X70815Y271768D02*
X71547Y272500D01*
X10000D02*
X30516D01*
X31247Y271768D01*
X-130000Y60000D02*
X-122343D01*
X-120000Y0D02*
Y57657D01*
X-122343Y60000D02*
X-120000Y57657D01*
X110000Y400000D02*
X156000D01*
X-40000Y262500D02*
X-30000Y272500D01*
X10000D01*
X-269861Y360116D02*
X-210000Y410000D01*
X-194339Y420462D01*
X-193695Y420633D01*
X-180134Y424228D02*
X-170542Y426772D01*
X-170142Y426878D02*
X-167734Y427516D01*
X-180000Y410500D02*
Y423721D01*
X-159775Y390000D02*
X-132343D01*
X-269000Y79000D02*
X-231500D01*
X-168500D01*
X130000Y310000D02*
Y315000D01*
X160750Y-15500D02*
Y-3539D01*
X181027Y94595D02*
X215500D01*
X-132343Y390000D02*
X-130000Y387657D01*
Y337657D02*
X-127657Y340000D01*
X-280800Y90800D02*
X-269000Y79000D01*
X-231500Y149000D02*
X-168500D01*
X75653Y400000D02*
X110000D01*
X160000Y276500D02*
Y310000D01*
X181027Y83612D02*
Y90000D01*
Y94595D01*
X193250Y-15500D02*
Y-3539D01*
X-312750Y180950D02*
X-280800Y149000D01*
Y90800D02*
Y149000D01*
X-176250Y320500D02*
X-174250D01*
X-163750Y429500D02*
X-150000D01*
X-130000Y304000D02*
Y337657D01*
X-172266Y318218D02*
X-168157Y314109D01*
X-172266Y318218D02*
Y318516D01*
X92063Y80000D02*
Y272500D01*
X130750Y80000D02*
Y90000D01*
X-180000Y410500D02*
X-163750D01*
Y393975D02*
Y410500D01*
Y393975D02*
X-159775Y390000D01*
X-120000Y454798D02*
X-117020Y457778D01*
X-280800Y149000D02*
X-235000D01*
X92063Y80000D02*
X120000D01*
Y-3539D02*
X160750D01*
X-150000Y429500D02*
Y445403D01*
X-101611Y460000D02*
X-20000D01*
X-175438Y306828D02*
X-168157Y314109D01*
X-164048Y310000D01*
X-158500D01*
X75653Y330616D02*
X91385Y314884D01*
X31247Y271768D02*
X70815D01*
X-288250Y278250D02*
Y320000D01*
X-150000Y445403D02*
X-120000D01*
X-130000Y342343D02*
X-127657Y340000D01*
X-140000Y290000D02*
Y300000D01*
X-174250Y320500D02*
X-172266Y318516D01*
X10000Y280000D02*
X32250D01*
X-288250Y278250D02*
X-270000Y260000D01*
X-120000Y445403D02*
Y454798D01*
X75653Y330616D02*
Y400000D01*
X10000Y272500D02*
Y280000D01*
X-6250Y350000D02*
X10000D01*
X215500Y80000D02*
Y94595D01*
X-150000Y270000D02*
Y280000D01*
X-100000D01*
X91750Y300000D02*
X100000D01*
X90000Y340000D02*
Y370000D01*
X100000Y322500D02*
Y330000D01*
Y322500D02*
X107500Y315000D01*
X100000Y300000D02*
Y307500D01*
X107500Y315000D01*
X90000Y340000D02*
X100000Y330000D01*
X-100000Y280000D02*
X-79785D01*
X-90000Y380000D02*
X-76956Y366956D01*
X-75785Y284000D02*
Y364128D01*
X-158785Y47215D02*
Y54684D01*
X-165000Y41000D02*
X-158785Y47215D01*
X-140000Y57469D02*
Y70000D01*
X-140301Y57168D02*
X-140000Y57469D01*
X-231500Y41000D02*
X-168500D01*
X-140000Y70000D02*
X-130000D01*
X-150000D02*
X-140000D01*
Y92000D01*
X-130000Y60000D02*
Y70000D01*
X-220000Y280000D02*
X-150000D01*
X130000Y370000D02*
X150000D01*
X90000D02*
X130000D01*
X88500D02*
X90000D01*
X130000Y350000D02*
Y370000D01*
X-90000Y380000D02*
Y398000D01*
X-89984Y420016D02*
X-87500Y422500D01*
X-89984Y398016D02*
Y420016D01*
X-90000Y398000D02*
X-89984Y398016D01*
X-140000Y330000D02*
Y378810D01*
Y311500D02*
Y330000D01*
X-176250D02*
X-140000D01*
X-141500Y310000D02*
X-140000Y311500D01*
X-141190Y380000D02*
X-140000Y378810D01*
X-220000Y380000D02*
X-141190D01*
X-225016Y374984D02*
X-220000Y380000D01*
X-225016Y364734D02*
Y374984D01*
X-228750Y361000D02*
X-225016Y364734D01*
X-240000Y361000D02*
X-228750D01*
X-230000Y270000D02*
X-220000Y280000D01*
X-259766Y240234D02*
X-230000Y270000D01*
X-240000Y299000D02*
X-230000Y289000D01*
Y270000D02*
Y289000D01*
X-261368Y219050D02*
X-259766Y220652D01*
X-263000Y219050D02*
X-261368D01*
X-259766Y220652D02*
Y240234D01*
X-317488Y219277D02*
X-317475Y219272D01*
Y219525D01*
X-335319Y193872D02*
X-320831D01*
X-339192Y190000D02*
X-335319Y193872D01*
D53*
X77939Y184249D02*
G03*
X77345Y185685I-2032J-0D01*
G01*
X167250Y-3539D02*
G03*
X170000Y3100I-6639J6639D01*
G01*
X36537Y-55882D02*
G03*
X35019Y-56564I0J-2032D01*
G01*
X-35987Y-57249D02*
G03*
X-37465Y-57733I-155J-2026D01*
G01*
X2934Y-60821D02*
G03*
X1547Y-60118I-1542J-1323D01*
G01*
X49405Y-60595D02*
G03*
X50000Y-59158I-1437J1437D01*
G01*
X38948Y-69795D02*
G03*
X40764Y-69236I380J1996D01*
G01*
X10000Y-12607D02*
G03*
X10959Y-14332I2032J0D01*
G01*
X82500Y422500D02*
G03*
X80000Y420000I0J-2500D01*
G01*
X-50000Y309522D02*
G03*
X-47978Y307500I2032J10D01*
G01*
X-253062Y193062D02*
G03*
X-254492Y193650I-1429J-1444D01*
G01*
X-240593Y180593D02*
G03*
X-239158Y180000I1435J1439D01*
G01*
X167250Y43577D02*
G03*
X167836Y42164I2032J14D01*
G01*
X84250Y6758D02*
X84503Y6505D01*
X120000D01*
X77939Y184249D02*
X77939D01*
X-2863Y266049D02*
X77345Y185685D01*
X77939Y2061D02*
Y184249D01*
Y2061D02*
X80000Y0D01*
X-92163Y23502D02*
X-91404Y22742D01*
X-86266D02*
X-85237Y21713D01*
X-91404Y22742D02*
X-86266D01*
X-85237Y21713D02*
X-82006D01*
X-74714Y29005D01*
X-80000Y41515D02*
Y260000D01*
X-74714Y29005D02*
Y42786D01*
X-91516Y30000D02*
X-80000Y41515D01*
X1317Y327343D02*
X2076Y326584D01*
X-3593Y327343D02*
X1317D01*
X-6250Y330000D02*
X-3593Y327343D01*
X-70759Y240759D02*
Y242811D01*
X-71123Y243174D02*
X-70759Y242811D01*
X-71123Y243174D02*
Y318877D01*
X-70759Y240759D02*
X-70000Y240000D01*
X-71123Y318877D02*
X-65438Y324562D01*
X-313529Y206350D02*
X-313484Y206305D01*
X-305808Y189934D02*
Y198628D01*
X-313689Y180950D02*
X-312086Y182552D01*
Y183655D02*
X-305808Y189934D01*
X-313484Y206305D02*
X-305808Y198628D01*
X-314391Y180950D02*
X-313689D01*
X-312086Y182552D02*
Y183655D01*
X-314391Y180950D02*
X-312750D01*
X-317000D02*
X-314391D01*
X-207734Y330610D02*
Y330636D01*
X-212999Y330610D02*
X-207734D01*
X-213609Y331221D02*
X-212999Y330610D01*
X-220000Y368810D02*
X-218810Y370000D01*
X-220000Y321190D02*
X-218810Y320000D01*
X-220000Y321190D02*
Y368810D01*
X-313529Y206350D02*
X-313440D01*
X-40000Y-190000D02*
Y-180000D01*
X40790Y264797D02*
X54828Y250759D01*
X59241D01*
X60000Y250000D01*
X25668Y-68335D02*
X35019Y-56564D01*
X70096Y79523D02*
X71670Y77949D01*
Y-21674D02*
Y77949D01*
X70096Y79523D02*
Y179904D01*
X45816Y-19124D02*
X50000Y-23308D01*
X45816Y-19124D02*
Y-18939D01*
X50000Y-59158D02*
Y-23308D01*
X27650Y-20000D02*
X34714Y-19616D01*
X40572Y-31840D02*
Y-27461D01*
X39405Y-40595D02*
X40000Y-40000D01*
X40595Y-2593D02*
X44909Y1722D01*
X40000Y-3188D02*
X40595Y-2593D01*
X28222Y-29991D02*
X35286Y-29651D01*
X40000Y-22018D02*
X40000Y-3188D01*
X28097Y-29997D02*
X28222Y-29991D01*
X40000Y-22018D02*
X40572Y-27461D01*
X-40000Y-30000D02*
X27985D01*
X34024Y-45976D02*
X39405Y-40595D01*
X40000Y-40000D02*
X40572Y-31840D01*
X20000Y-20000D02*
X27650D01*
X27985Y-30000D02*
X28097Y-29997D01*
X173750Y60958D02*
X174020Y61228D01*
X173750Y55500D02*
Y60958D01*
X147750Y55500D02*
Y67750D01*
X36537Y-55882D02*
X43670D01*
X43764Y-55788D01*
X-57552Y-57552D02*
X-50000Y-50000D01*
X-127300Y-47300D02*
X-117048Y-57552D01*
X-57552D01*
X-120000Y80000D02*
X-110000Y70000D01*
Y0D02*
Y70000D01*
X-120000Y-10000D02*
X-110000D01*
X-102562Y-20000D02*
Y266974D01*
X-20000Y250000D02*
Y266183D01*
X-20017Y266200D02*
X-20000Y266183D01*
X2934Y-60821D02*
X9293Y-68233D01*
X2934Y-60821D02*
X2934Y-60821D01*
X-44877Y-64092D02*
X-37465Y-57733D01*
X-35987Y-57249D02*
X1547Y-60118D01*
X-239158Y180000D02*
X-230000D01*
X-235000Y149000D02*
X-231500D01*
X-101975Y459636D02*
X-101611Y460000D01*
X-260000Y138500D02*
X-245500D01*
X110000Y400000D02*
X112500Y402500D01*
X120000Y-3539D02*
Y-3098D01*
X-245500Y138500D02*
X-235000Y149000D01*
X112500Y402500D02*
Y422500D01*
X-274750Y260000D02*
X-270000D01*
X-167734Y427516D02*
X-163750Y429500D01*
X-321250Y180950D02*
X-317000D01*
X120000Y6437D02*
Y6505D01*
X170000Y3100D02*
Y30000D01*
X-278234Y256516D02*
X-274750Y260000D01*
X36537Y-55882D02*
X36537Y-55882D01*
X40764Y-69236D02*
X49405Y-60595D01*
X57449Y-72551D02*
X60000Y-70000D01*
X48781Y-72551D02*
X57449D01*
X60000Y-70000D02*
Y140000D01*
X50000Y150000D02*
X60000Y140000D01*
X50000Y150000D02*
Y160000D01*
X-65438Y324562D02*
Y335861D01*
X32932Y-68623D02*
X38948Y-69795D01*
X-30000Y-20000D02*
X-30000Y30000D01*
X-61015Y61015D02*
X-30000Y30000D01*
X-61015Y61015D02*
Y314884D01*
X-7500Y-45976D02*
X34024D01*
X-34024D02*
X-7500D01*
X-46081Y-33919D02*
X-34024Y-45976D01*
X10959Y-14332D02*
X20000Y-20000D01*
X10000Y-12607D02*
Y220000D01*
X-20000Y250000D02*
X10000Y220000D01*
X-20000Y280000D02*
Y299269D01*
X-35615Y314884D02*
X-20000Y299269D01*
X80000Y-30000D02*
Y0D01*
Y410000D02*
Y420000D01*
X-47978Y307500D02*
X-47500D01*
X-47978D02*
X-47978D01*
X-50000Y309522D02*
Y341690D01*
Y309522D02*
Y309522D01*
X-47500Y307500D02*
X-40000Y300000D01*
X-50000Y341690D02*
Y345250D01*
X30592Y-101573D02*
X48427D01*
X50000Y-100000D01*
X-152700Y-72700D02*
X-135400Y-90000D01*
X-40000D01*
X45944Y-94056D02*
X50000Y-90000D01*
X27764Y-94056D02*
X45944D01*
X-97488Y-62512D02*
X-80000Y-80000D01*
X-137488Y-62512D02*
X-97488D01*
X-152700Y-47300D02*
X-137488Y-62512D01*
X1959Y-73889D02*
X6443Y-78373D01*
X-2930Y-70000D02*
X959Y-73889D01*
X6443Y-79373D02*
Y-78373D01*
X959Y-73889D02*
X1959D01*
X-10000Y-70000D02*
X-2930D01*
X25570Y-79500D02*
X37430D01*
X25443Y-79373D02*
X25570Y-79500D01*
X-165000Y41000D02*
X-161016Y37016D01*
X-168500Y41000D02*
X-165000D01*
X-161016Y31016D02*
Y37016D01*
Y31016D02*
X-120000Y-10000D01*
X-158785Y54684D02*
X-156301Y57168D01*
X-231500Y111000D02*
X-168500D01*
X-235000D02*
X-231500D01*
X-245500Y121500D02*
X-235000Y111000D01*
X-260000Y121500D02*
X-245500D01*
X-139000Y108000D02*
X-136516Y105516D01*
Y104516D02*
X-130000Y98000D01*
X-140000Y108000D02*
X-139000D01*
X-136516Y104516D02*
Y105516D01*
X-130000Y90000D02*
Y98000D01*
X-168500Y111000D02*
X-165500Y108000D01*
X-140000D01*
X-97840Y28810D02*
X-96650Y30000D01*
X-97840Y-15782D02*
X-90763Y-22859D01*
X-96650Y30000D02*
X-91516D01*
X-97840Y-15782D02*
Y28810D01*
X-46081Y4852D02*
X-43439Y7494D01*
X-46081Y-33919D02*
Y4852D01*
X30000Y-180000D02*
X53500D01*
X-10000D02*
X30000D01*
Y-170000D01*
X-40000Y-180000D02*
X-36500D01*
X-90000D02*
X-40000D01*
Y-190000D02*
X-10000D01*
Y-180000D01*
X-120000Y-210000D02*
X-90000Y-180000D01*
X-120000Y-300000D02*
X0D01*
X130000Y-350000D02*
Y-330000D01*
X-150000Y40000D02*
X-130000D01*
X-150000Y30000D02*
X-130000D01*
X53625Y285875D02*
Y330000D01*
X20000D02*
X53625D01*
X-6250D02*
Y340500D01*
Y360000D02*
X30000D01*
Y370000D01*
X-6250Y359500D02*
Y360000D01*
X30000Y370000D02*
X51500D01*
X30000D02*
Y380000D01*
X-11500D02*
X30000D01*
X-50000Y348810D02*
Y380000D01*
Y345250D02*
Y348810D01*
X-57500Y345250D02*
X-50000D01*
Y380000D02*
X-28500D01*
X-57500Y345250D02*
Y422500D01*
X-48810Y350000D02*
X-33750D01*
X-50000Y348810D02*
X-48810Y350000D01*
X-50000Y341690D02*
X-48810Y340500D01*
X-33750D01*
X-23698Y-178016D02*
Y-149484D01*
X-27500Y-140000D02*
X-23698Y-149484D01*
Y-178016D02*
X-23500Y-180000D01*
X66550Y-178016D02*
Y-149484D01*
X67500Y-140000D01*
X66500Y-180000D02*
X66550Y-178016D01*
X-20000Y-70000D02*
X40516Y-130516D01*
X67500Y-140000D01*
X-30000Y-130516D02*
X-27500Y-140000D01*
X-30000Y-130516D02*
Y-70000D01*
X-270000Y320000D02*
X-260000D01*
X-207734Y330636D02*
X-203750Y330000D01*
X-136250Y429500D02*
X-121190D01*
X-120000Y370000D02*
Y428310D01*
X-121190Y429500D02*
X-120000Y428310D01*
X-200000Y350000D02*
X-150000D01*
X-203750Y346250D02*
X-200000Y350000D01*
X-203750Y339500D02*
Y346250D01*
X-204250Y320000D02*
X-203750Y320500D01*
X-218810Y320000D02*
X-204250D01*
X-218810Y370000D02*
X-150000D01*
X-140000Y408516D02*
X-138016Y410500D01*
X-136250D01*
X-140000Y400000D02*
Y408516D01*
X-352357Y220793D02*
X-349957D01*
X-306000Y260000D02*
X-301250D01*
X-353116Y220034D02*
X-352357Y220793D01*
X-260950Y180950D02*
X-250000Y170000D01*
X-263000Y180950D02*
X-260950D01*
X-263000Y193650D02*
X-254492D01*
X-253062Y193062D02*
X-240593Y180593D01*
X-263000Y206350D02*
X-253650D01*
X-250000Y210000D01*
X-232693Y227307D01*
X-226442D01*
X-340000Y190000D02*
X-339192D01*
X-317475Y219525D02*
X-317000Y219050D01*
X220043Y-32952D02*
Y-15500D01*
X226985Y-39894D02*
X231816D01*
X233300Y-43378D02*
Y-41378D01*
X231816Y-39894D02*
X233300Y-41378D01*
X220043Y-32952D02*
X226985Y-39894D01*
X219250Y-15500D02*
X220043D01*
X232250Y-21549D02*
X258451D01*
X232250D02*
Y-15500D01*
X225750Y-30000D02*
Y-15500D01*
Y-30000D02*
X230000D01*
X154215Y40035D02*
X154250Y40000D01*
X199750Y-3543D02*
X199750Y-3553D01*
X244500Y78250D02*
X249984Y72766D01*
X244500Y78250D02*
Y80000D01*
X249984Y72766D02*
X251734D01*
D55*
X184693Y46407D02*
G03*
X186750Y55500I-19067J9093D01*
G01*
X180563Y40563D02*
G03*
X184693Y46407I-14937J14937D01*
G01*
X212750Y7829D02*
G03*
X205310Y25789I-25400J0D01*
G01*
X-314593Y208278D02*
G03*
X-315660Y206350I2859J-2841D01*
G01*
X-348935Y222554D02*
G03*
X-349957Y220793I2862J-2838D01*
G01*
X-310000Y259996D02*
G03*
X-312498Y258981I180J-4026D01*
G01*
X-309834Y260000D02*
G03*
X-310000Y259996I14J-4030D01*
G01*
X-315913Y238288D02*
G03*
X-310662Y247440I-14283J14279D01*
G01*
D02*
G03*
X-310000Y252567I-19535J5127D01*
G01*
X199750Y-3543D02*
G03*
X189989Y20011I-33289J4D01*
G01*
X184693Y46407D02*
X205310Y25789D01*
X212750Y-15500D02*
Y7829D01*
Y-43378D02*
Y-15500D01*
X-314593Y208278D02*
X-278234Y244637D01*
X-315660Y206350D02*
X-315660D01*
X-317000D02*
X-315660D01*
X120000Y80000D02*
Y90000D01*
Y-3098D02*
Y6437D01*
Y6505D02*
Y80000D01*
X-328438Y171295D02*
Y173762D01*
X120000Y-50000D02*
X140000Y-70000D01*
X-328438Y173762D02*
X-321250Y180950D01*
X120000Y80000D02*
X130750D01*
X141500D01*
X120000Y-50000D02*
Y-3539D01*
X140000Y-70000D02*
X171000D01*
X-278234Y244637D02*
Y256516D01*
X171000Y-70000D02*
X181000Y-60000D01*
X-317000Y219050D02*
Y237201D01*
X-340745Y230745D02*
Y259255D01*
X-312586Y258903D02*
X-312498Y258981D01*
X-348935Y222554D02*
X-340745Y230745D01*
X-310000Y259996D02*
Y260000D01*
X-309820D02*
X-306000D01*
X-349957Y220793D02*
Y220793D01*
X-340745Y230745D02*
X-312586Y258903D01*
X-309834Y260000D02*
X-309820Y260000D01*
X-340745Y259255D02*
X-340000Y260000D01*
X-310000Y257515D02*
X-310000Y259996D01*
X-317000Y237201D02*
X-315913Y238288D01*
X-310000Y252567D02*
X-310000Y257515D01*
X212750Y-43378D02*
X216300D01*
X199750Y-15500D02*
Y-3553D01*
X167836Y42164D02*
X189989Y20011D01*
X167250Y43577D02*
Y55500D01*
D56*
X165794Y72706D02*
G03*
X165777Y72723I-3544J-3527D01*
G01*
X159827Y78673D02*
G03*
X158511Y79618I-3535J-3535D01*
G01*
X167250Y71250D02*
G03*
X167237Y71263I-3535J-3536D01*
G01*
X158500Y79618D02*
Y80000D01*
X258056Y66444D02*
X258560D01*
X158500Y79618D02*
X158511D01*
X159827Y78673D02*
X165777Y72723D01*
X280000Y40000D02*
Y80000D01*
X165777Y72723D02*
X167250D01*
Y55500D02*
Y71250D01*
X165794Y72706D02*
X167237Y71263D01*
X167250Y72723D02*
X191223D01*
X206250Y-59823D02*
Y-15500D01*
Y-59823D02*
X206822D01*
X199000Y-60000D02*
X232000D01*
X189750Y71250D02*
X198500Y80000D01*
X258056Y66444D02*
X264500Y60000D01*
X251734Y72766D02*
X258056Y66444D01*
X194556D02*
X258056D01*
X189750Y71250D02*
X194556Y66444D01*
X264500Y60000D02*
X280000D01*
Y40000D02*
X290000Y30000D01*
Y-57071D02*
Y30000D01*
X287071Y-60000D02*
X290000Y-57071D01*
X270000Y-60000D02*
X287071D01*
X248000D02*
X270000D01*
D57*
X-192500Y-147500D02*
D03*
X-92500Y-237500D02*
D03*
X-192500Y-317500D02*
D03*
X-292500Y-237500D02*
D03*
X147500Y-297500D02*
D03*
X250000Y-220000D02*
D03*
D58*
X-127500Y-147500D02*
D03*
X-192500Y-192500D02*
D03*
X-127500D02*
D03*
X-27500Y-282500D02*
D03*
X-92500D02*
D03*
X-27500Y-237500D02*
D03*
X-127500Y-317500D02*
D03*
X-192500Y-362500D02*
D03*
X-127500D02*
D03*
X-227500Y-282500D02*
D03*
X-292500D02*
D03*
X-227500Y-237500D02*
D03*
X212500Y-297500D02*
D03*
X147500Y-342500D02*
D03*
X212500D02*
D03*
X315000Y-265000D02*
D03*
X250000D02*
D03*
X315000Y-220000D02*
D03*
D59*
X-101900Y-72700D02*
D03*
X-127300D02*
D03*
X-152700D02*
D03*
X-178100D02*
D03*
X-101900Y-47300D02*
D03*
X-127300D02*
D03*
X-152700D02*
D03*
D60*
X-178100D02*
D03*
D61*
X-86415Y314884D02*
D03*
D62*
X91385D02*
D03*
X65985D02*
D03*
X-35615D02*
D03*
X-61015D02*
D03*
X40585D02*
D03*
X-10215D02*
D03*
X15185D02*
D03*
D63*
X370500Y129375D02*
D03*
X329500D02*
D03*
X-319500Y127500D02*
D03*
X-360500D02*
D03*
D64*
X46350Y430000D02*
D03*
D03*
D65*
X31350D02*
D03*
D03*
X16350D02*
D03*
D03*
X1350D02*
D03*
D03*
D66*
X-80000Y440000D02*
D03*
X-50000D02*
D03*
X120000D02*
D03*
X90000D02*
D03*
D67*
X-130000Y70000D02*
D03*
Y40000D02*
D03*
X84250Y6758D02*
D03*
X-92163Y23502D02*
D03*
X-80000Y260000D02*
D03*
X-74714Y42786D02*
D03*
X2076Y326584D02*
D03*
X-213609Y331221D02*
D03*
X40790Y264797D02*
D03*
X25668Y-68335D02*
D03*
X71670Y-21674D02*
D03*
X45816Y-18939D02*
D03*
X34714Y-19616D02*
D03*
X35286Y-29651D02*
D03*
X174020Y61228D02*
D03*
X147750Y67750D02*
D03*
X43764Y-55788D02*
D03*
X-120000Y0D02*
D03*
X-110000D02*
D03*
Y-10000D02*
D03*
X60000Y250000D02*
D03*
X-2863Y266049D02*
D03*
X-20017Y266200D02*
D03*
X48781Y-72551D02*
D03*
X50000Y160000D02*
D03*
X-70000Y240000D02*
D03*
X-65438Y335861D02*
D03*
X-150000Y270000D02*
D03*
X32932Y-68623D02*
D03*
X9293Y-68233D02*
D03*
X-44877Y-64092D02*
D03*
X-30000Y-20000D02*
D03*
X-7500Y-45976D02*
D03*
X-20000Y280000D02*
D03*
X70096Y179904D02*
D03*
X80000Y-30000D02*
D03*
Y410000D02*
D03*
X50000Y-100000D02*
D03*
X30592Y-101573D02*
D03*
X-40000Y-90000D02*
D03*
X50000D02*
D03*
X27764Y-94056D02*
D03*
X-80000Y-80000D02*
D03*
X-40000Y-30000D02*
D03*
X-50000Y-50000D02*
D03*
X-10000Y-70000D02*
D03*
X37430Y-79500D02*
D03*
X-130000Y90000D02*
D03*
X-90763Y-22859D02*
D03*
X-102562Y-20000D02*
D03*
Y266974D02*
D03*
X-120000Y80000D02*
D03*
X-43439Y7494D02*
D03*
X44909Y1722D02*
D03*
X30000Y-170000D02*
D03*
X-120000Y-210000D02*
D03*
X0Y-300000D02*
D03*
X-120000D02*
D03*
X130000Y-330000D02*
D03*
Y-350000D02*
D03*
X-150000Y40000D02*
D03*
X-130000Y30000D02*
D03*
X-150000D02*
D03*
Y70000D02*
D03*
X-140000Y290000D02*
D03*
X150000Y370000D02*
D03*
X20000Y330000D02*
D03*
X-20000Y-70000D02*
D03*
X-30000D02*
D03*
X120000Y90000D02*
D03*
X170000Y30000D02*
D03*
X180563Y40563D02*
D03*
X-260000Y320000D02*
D03*
X-120000Y370000D02*
D03*
X-150000Y350000D02*
D03*
Y370000D02*
D03*
X-140000Y400000D02*
D03*
X-353116Y220034D02*
D03*
X-340000Y260000D02*
D03*
X-250000Y170000D02*
D03*
X-230000Y180000D02*
D03*
X-226442Y227307D02*
D03*
X-328438Y171295D02*
D03*
X-340000Y190000D02*
D03*
X258451Y-21549D02*
D03*
X230000Y-30000D02*
D03*
X280000Y80000D02*
D03*
D68*
X-140000Y108000D02*
D03*
Y92000D02*
D03*
D69*
X-115782Y283341D02*
D03*
Y343341D02*
D03*
D70*
X-40000Y297500D02*
D03*
Y262500D02*
D03*
X130000Y315000D02*
D03*
Y350000D02*
D03*
D71*
X-290000Y200000D02*
D03*
D72*
X-263000Y219050D02*
D03*
Y206350D02*
D03*
Y193650D02*
D03*
Y180950D02*
D03*
X-317000Y219050D02*
D03*
Y206350D02*
D03*
Y193650D02*
D03*
Y180950D02*
D03*
D73*
X-28500Y450500D02*
D03*
Y429500D02*
D03*
X-101500Y450500D02*
D03*
Y429500D02*
D03*
X141500Y450500D02*
D03*
X68500D02*
D03*
X141500Y429500D02*
D03*
X68500D02*
D03*
D74*
X-42500Y422500D02*
D03*
X-57500D02*
D03*
X-87500D02*
D03*
X112500D02*
D03*
X127500D02*
D03*
X82500D02*
D03*
D75*
X25443Y-79373D02*
D03*
X6443D02*
D03*
D76*
X-168500Y41000D02*
D03*
X-231500D02*
D03*
Y79000D02*
D03*
X-168500D02*
D03*
X-168500Y111000D02*
D03*
X-231500D02*
D03*
Y149000D02*
D03*
X-168500D02*
D03*
D77*
X-260000Y121500D02*
D03*
Y138500D02*
D03*
D78*
X88500Y370000D02*
D03*
X51500D02*
D03*
D79*
X-11500Y380000D02*
D03*
X-28500D02*
D03*
X-141500Y310000D02*
D03*
X-158500D02*
D03*
X233300Y-43378D02*
D03*
X216300D02*
D03*
X198027Y83612D02*
D03*
X181027D02*
D03*
X158500Y80000D02*
D03*
X141500D02*
D03*
D80*
X-33750Y350000D02*
D03*
Y359500D02*
D03*
Y340500D02*
D03*
X-6250D02*
D03*
Y359500D02*
D03*
Y350000D02*
D03*
X-163750Y410500D02*
D03*
Y420000D02*
D03*
Y429500D02*
D03*
X-136250D02*
D03*
Y420000D02*
D03*
Y410500D02*
D03*
X-203750Y320500D02*
D03*
Y330000D02*
D03*
Y339500D02*
D03*
X-176250D02*
D03*
Y330000D02*
D03*
Y320500D02*
D03*
D81*
X66500Y-180000D02*
D03*
X53500D02*
D03*
X-23500D02*
D03*
X-36500D02*
D03*
D82*
X67500Y-140000D02*
D03*
X-27500D02*
D03*
D83*
X147750Y55500D02*
D03*
X154250D02*
D03*
X160750D02*
D03*
X167250D02*
D03*
X173750D02*
D03*
X180250D02*
D03*
X186750D02*
D03*
X193250D02*
D03*
X199750D02*
D03*
X206250D02*
D03*
X212750D02*
D03*
X219250D02*
D03*
X225750D02*
D03*
X232250D02*
D03*
X147750Y-15500D02*
D03*
X154250D02*
D03*
X160750D02*
D03*
X167250D02*
D03*
X173750D02*
D03*
X180250D02*
D03*
X186750D02*
D03*
X193250D02*
D03*
X199750D02*
D03*
X206250D02*
D03*
X212750D02*
D03*
X219250D02*
D03*
X225750D02*
D03*
X232250D02*
D03*
D84*
X-288250Y320000D02*
D03*
X-271750D02*
D03*
D85*
X-240000Y361000D02*
D03*
Y299000D02*
D03*
D86*
X-270000Y260000D02*
D03*
X-306000D02*
D03*
D87*
X215500Y80000D02*
D03*
X244500D02*
D03*
D88*
X181000Y-60000D02*
D03*
X199000D02*
D03*
M02*
