G04*
G04 #@! TF.GenerationSoftware,Altium Limited,Altium Designer,22.3.1 (43)*
G04*
G04 Layer_Color=65535*
%FSLAX44Y44*%
%MOMM*%
G71*
G04*
G04 #@! TF.SameCoordinates,4B90D417-7196-441A-B007-7CACEF84B99C*
G04*
G04*
G04 #@! TF.FilePolarity,Positive*
G04*
G01*
G75*
%ADD10C,0.2000*%
%ADD11C,0.2540*%
%ADD12C,0.1000*%
%ADD13C,0.2500*%
%ADD14C,0.6000*%
%ADD15C,0.1270*%
%ADD16C,0.0500*%
D10*
X-196300Y-47300D02*
G03*
X-196300Y-47300I-1000J0D01*
G01*
X-85415Y336584D02*
G03*
X-85415Y336584I-1000J0D01*
G01*
X330000Y141500D02*
G03*
X330000Y141500I-1000J0D01*
G01*
X-360000Y139625D02*
G03*
X-360000Y139625I-1000J0D01*
G01*
X-94250Y59000D02*
Y61000D01*
X-105750Y59000D02*
Y61000D01*
X-203500Y257500D02*
X-196500D01*
X-203500Y242500D02*
X-196500D01*
X37500Y46000D02*
X46000Y37500D01*
Y-37500D02*
Y37500D01*
X37500Y-46000D02*
X46000Y-37500D01*
X-37500Y46000D02*
X37500D01*
X-46000Y37500D02*
X-37500Y46000D01*
X-32500Y-46000D02*
Y-31000D01*
X-37500Y-46000D02*
X37500D01*
X-37500Y-31000D02*
X-32500D01*
X-37500Y-46000D02*
Y-31000D01*
X-46000Y-37500D02*
Y37500D01*
Y-37500D02*
X-37500Y-46000D01*
X-74250Y59000D02*
Y61000D01*
X-85750Y59000D02*
Y61000D01*
X-185000Y4000D02*
Y36000D01*
X-235000Y4000D02*
Y36000D01*
X-185000D01*
X-235000Y4000D02*
X-185000D01*
X-343500Y169500D02*
Y170500D01*
X-336500Y169500D02*
Y170500D01*
D11*
X25616Y397001D02*
G03*
X25350Y397000I-266J32999D01*
G01*
X-237588Y74133D02*
X-234256D01*
X-235922D01*
Y64136D01*
X-237588D01*
X-234256D01*
X-222593Y72467D02*
X-224259Y74133D01*
X-227591D01*
X-229257Y72467D01*
Y65802D01*
X-227591Y64136D01*
X-224259D01*
X-222593Y65802D01*
X-214262Y64136D02*
Y74133D01*
X-219261Y69134D01*
X-212596D01*
X-136661Y324998D02*
Y315002D01*
X-129997D01*
X-120000Y323332D02*
X-121666Y324998D01*
X-124998D01*
X-126664Y323332D01*
Y316668D01*
X-124998Y315002D01*
X-121666D01*
X-120000Y316668D01*
X-116668Y324998D02*
Y315002D01*
X-111669D01*
X-110003Y316668D01*
Y323332D01*
X-111669Y324998D01*
X-116668D01*
X-106671Y315002D02*
X-103339D01*
X-105005D01*
Y324998D01*
X-106671Y323332D01*
X-266665Y-35002D02*
X-260000Y-44998D01*
Y-35002D02*
X-266665Y-44998D01*
X-256668D02*
X-253335D01*
X-255002D01*
Y-35002D01*
X-256668Y-36668D01*
X294179Y154168D02*
Y164165D01*
X299177D01*
X300844Y162498D01*
Y159166D01*
X299177Y157500D01*
X294179D01*
X304176Y160832D02*
Y154168D01*
Y157500D01*
X305842Y159166D01*
X307508Y160832D01*
X309174D01*
X315839Y154168D02*
X319171D01*
X320837Y155834D01*
Y159166D01*
X319171Y160832D01*
X315839D01*
X314173Y159166D01*
Y155834D01*
X315839Y154168D01*
X327502Y150836D02*
X329168D01*
X330834Y152502D01*
Y160832D01*
X325835D01*
X324169Y159166D01*
Y155834D01*
X325835Y154168D01*
X330834D01*
X344163Y160832D02*
Y155834D01*
X345829Y154168D01*
X350827D01*
Y160832D01*
X354160Y154168D02*
X359158D01*
X360824Y155834D01*
X359158Y157500D01*
X355826D01*
X354160Y159166D01*
X355826Y160832D01*
X360824D01*
X364156Y164165D02*
Y154168D01*
X369155D01*
X370821Y155834D01*
Y157500D01*
Y159166D01*
X369155Y160832D01*
X364156D01*
X-369156Y154998D02*
X-370823Y156664D01*
X-374155D01*
X-375821Y154998D01*
Y148334D01*
X-374155Y146668D01*
X-370823D01*
X-369156Y148334D01*
X-365824Y156664D02*
Y146668D01*
Y151666D01*
X-364158Y153332D01*
X-360826D01*
X-359160Y151666D01*
Y146668D01*
X-355827Y153332D02*
Y146668D01*
Y150000D01*
X-354161Y151666D01*
X-352495Y153332D01*
X-350829D01*
X-342498Y143336D02*
X-340832D01*
X-339166Y145002D01*
Y153332D01*
X-344165D01*
X-345831Y151666D01*
Y148334D01*
X-344165Y146668D01*
X-339166D01*
X-325837Y153332D02*
Y148334D01*
X-324171Y146668D01*
X-319173D01*
Y153332D01*
X-315840Y146668D02*
X-310842D01*
X-309176Y148334D01*
X-310842Y150000D01*
X-314174D01*
X-315840Y151666D01*
X-314174Y153332D01*
X-309176D01*
X-305844Y156664D02*
Y146668D01*
X-300845D01*
X-299179Y148334D01*
Y150000D01*
Y151666D01*
X-300845Y153332D01*
X-305844D01*
X274922Y-197617D02*
Y-187461D01*
X280000Y-182383D01*
X285078Y-187461D01*
Y-197617D01*
Y-190000D01*
X274922D01*
X174922Y-262383D02*
Y-277617D01*
X182539D01*
X185078Y-275078D01*
Y-272539D01*
X182539Y-270000D01*
X174922D01*
X182539D01*
X185078Y-267461D01*
Y-264922D01*
X182539Y-262383D01*
X174922D01*
X-287931Y-202383D02*
Y-217617D01*
X-277774D01*
X-262539Y-202383D02*
X-272696D01*
Y-217617D01*
X-262539D01*
X-272696Y-210000D02*
X-267617D01*
X-247304Y-202383D02*
X-257461D01*
Y-210000D01*
X-252383D01*
X-257461D01*
Y-217617D01*
X-242226Y-202383D02*
X-232069D01*
X-237147D01*
Y-217617D01*
X-187931Y-282383D02*
Y-297617D01*
X-180313D01*
X-177774Y-295078D01*
Y-284922D01*
X-180313Y-282383D01*
X-187931D01*
X-165078D02*
X-170157D01*
X-172696Y-284922D01*
Y-295078D01*
X-170157Y-297617D01*
X-165078D01*
X-162539Y-295078D01*
Y-284922D01*
X-165078Y-282383D01*
X-157461D02*
Y-297617D01*
X-152382Y-292539D01*
X-147304Y-297617D01*
Y-282383D01*
X-142226Y-297617D02*
Y-282383D01*
X-132069Y-297617D01*
Y-282383D01*
X-84279Y-217617D02*
Y-202383D01*
X-76661D01*
X-74122Y-204922D01*
Y-210000D01*
X-76661Y-212539D01*
X-84279D01*
X-79201D02*
X-74122Y-217617D01*
X-69044Y-202383D02*
X-63966D01*
X-66505D01*
Y-217617D01*
X-69044D01*
X-63966D01*
X-46191Y-204922D02*
X-48730Y-202383D01*
X-53809D01*
X-56348Y-204922D01*
Y-215078D01*
X-53809Y-217617D01*
X-48730D01*
X-46191Y-215078D01*
Y-210000D01*
X-51270D01*
X-41113Y-202383D02*
Y-217617D01*
Y-210000D01*
X-30956D01*
Y-202383D01*
Y-217617D01*
X-25878Y-202383D02*
X-15721D01*
X-20800D01*
Y-217617D01*
X-172696Y-112382D02*
Y-125078D01*
X-170157Y-127618D01*
X-165078D01*
X-162539Y-125078D01*
Y-112382D01*
X-157461Y-127618D02*
Y-112382D01*
X-149843D01*
X-147304Y-114922D01*
Y-120000D01*
X-149843Y-122539D01*
X-157461D01*
X47504Y385002D02*
Y394998D01*
X52502D01*
X54169Y393332D01*
Y390000D01*
X52502Y388334D01*
X47504D01*
X50836D02*
X54169Y385002D01*
X57501D02*
X60833D01*
X59167D01*
Y394998D01*
X57501Y393332D01*
X72496Y394998D02*
X69164Y393332D01*
X65831Y390000D01*
Y386668D01*
X67498Y385002D01*
X70830D01*
X72496Y386668D01*
Y388334D01*
X70830Y390000D01*
X65831D01*
X27931Y375185D02*
X20433D01*
Y378934D01*
X21683Y380184D01*
X24182D01*
X25432Y378934D01*
Y375185D01*
Y377684D02*
X27931Y380184D01*
Y382683D02*
Y385182D01*
Y383932D01*
X20433D01*
X21683Y382683D01*
X20433Y393929D02*
Y388931D01*
X24182D01*
X22933Y391430D01*
Y392680D01*
X24182Y393929D01*
X26681D01*
X27931Y392680D01*
Y390180D01*
X26681Y388931D01*
X-46959Y389806D02*
Y399803D01*
X-41961D01*
X-40294Y398136D01*
Y394804D01*
X-41961Y393138D01*
X-46959D01*
X-43627D02*
X-40294Y389806D01*
X-36962D02*
X-33630D01*
X-35296D01*
Y399803D01*
X-36962Y398136D01*
X-23633Y389806D02*
Y399803D01*
X-28631Y394804D01*
X-21967D01*
X-85822Y84203D02*
Y94200D01*
X-80824D01*
X-79158Y92534D01*
Y89202D01*
X-80824Y87536D01*
X-85822D01*
X-82490D02*
X-79158Y84203D01*
X-75825Y85870D02*
X-74159Y84203D01*
X-70827D01*
X-69161Y85870D01*
Y92534D01*
X-70827Y94200D01*
X-74159D01*
X-75825Y92534D01*
Y90868D01*
X-74159Y89202D01*
X-69161D01*
X-107286Y84456D02*
Y94453D01*
X-102288D01*
X-100622Y92787D01*
Y89454D01*
X-102288Y87788D01*
X-107286D01*
X-103954D02*
X-100622Y84456D01*
X-97289Y92787D02*
X-95623Y94453D01*
X-92291D01*
X-90625Y92787D01*
Y91121D01*
X-92291Y89454D01*
X-90625Y87788D01*
Y86122D01*
X-92291Y84456D01*
X-95623D01*
X-97289Y86122D01*
Y87788D01*
X-95623Y89454D01*
X-97289Y91121D01*
Y92787D01*
X-95623Y89454D02*
X-92291D01*
X-348331Y195002D02*
Y204998D01*
X-343332D01*
X-341666Y203332D01*
Y200000D01*
X-343332Y198334D01*
X-348331D01*
X-344998D02*
X-341666Y195002D01*
X-338334Y203332D02*
X-336668Y204998D01*
X-333335D01*
X-331669Y203332D01*
Y201666D01*
X-333335Y200000D01*
X-335002D01*
X-333335D01*
X-331669Y198334D01*
Y196668D01*
X-333335Y195002D01*
X-336668D01*
X-338334Y196668D01*
X-184202Y222041D02*
Y232038D01*
X-179204D01*
X-177537Y230372D01*
Y227040D01*
X-179204Y225374D01*
X-184202D01*
X-180870D02*
X-177537Y222041D01*
X-167541D02*
X-174205D01*
X-167541Y228706D01*
Y230372D01*
X-169207Y232038D01*
X-172539D01*
X-174205Y230372D01*
X-186665Y175002D02*
Y184998D01*
X-181666D01*
X-180000Y183332D01*
Y180000D01*
X-181666Y178334D01*
X-186665D01*
X-183332D02*
X-180000Y175002D01*
X-176668D02*
X-173335D01*
X-175002D01*
Y184998D01*
X-176668Y183332D01*
X-191660Y204998D02*
Y195002D01*
X-184995D01*
X-174998Y204998D02*
X-181663D01*
Y195002D01*
X-174998D01*
X-181663Y200000D02*
X-178331D01*
X-171666Y204998D02*
Y195002D01*
X-166668D01*
X-165002Y196668D01*
Y203332D01*
X-166668Y204998D01*
X-171666D01*
X-161669Y195002D02*
Y204998D01*
X-156671D01*
X-155005Y203332D01*
Y200000D01*
X-156671Y198334D01*
X-161669D01*
X-158337D02*
X-155005Y195002D01*
X-151672D02*
X-148340D01*
X-150006D01*
Y204998D01*
X-151672Y203332D01*
X-168327Y254998D02*
Y245002D01*
X-161663D01*
X-151666Y254998D02*
X-158331D01*
Y245002D01*
X-151666D01*
X-158331Y250000D02*
X-154998D01*
X-148334Y254998D02*
Y245002D01*
X-143335D01*
X-141669Y246668D01*
Y253332D01*
X-143335Y254998D01*
X-148334D01*
X-131672Y253332D02*
X-133339Y254998D01*
X-136671D01*
X-138337Y253332D01*
Y246668D01*
X-136671Y245002D01*
X-133339D01*
X-131672Y246668D01*
Y250000D01*
X-135005D01*
X-152496Y-15002D02*
X-149164D01*
X-150830D01*
Y-24998D01*
X-152496D01*
X-149164D01*
X-137501Y-16668D02*
X-139167Y-15002D01*
X-142499D01*
X-144165Y-16668D01*
Y-23332D01*
X-142499Y-24998D01*
X-139167D01*
X-137501Y-23332D01*
X-134169Y-15002D02*
X-127504D01*
Y-16668D01*
X-134169Y-23332D01*
Y-24998D01*
X-12496Y84998D02*
X-9164D01*
X-10830D01*
Y75002D01*
X-12496D01*
X-9164D01*
X2499Y83332D02*
X833Y84998D01*
X-2499D01*
X-4165Y83332D01*
Y76668D01*
X-2499Y75002D01*
X833D01*
X2499Y76668D01*
X12496Y84998D02*
X9164Y83332D01*
X5832Y80000D01*
Y76668D01*
X7498Y75002D01*
X10830D01*
X12496Y76668D01*
Y78334D01*
X10830Y80000D01*
X5832D01*
D12*
X-240000Y-29500D02*
G03*
X-240000Y-29500I-500J0D01*
G01*
X-221621Y260621D02*
G03*
X-221621Y260621I-500J0D01*
G01*
X-221121Y206621D02*
G03*
X-221121Y206621I-500J0D01*
G01*
D13*
X-43100Y-57000D02*
G03*
X-43100Y-57000I-1250J0D01*
G01*
X-236300Y-7000D02*
G03*
X-236300Y-7000I-1250J0D01*
G01*
D14*
X-222000Y14000D02*
G03*
X-222000Y14000I-3000J0D01*
G01*
D15*
X-181760Y-140000D02*
X-138240D01*
X-130000Y-181760D02*
Y-158240D01*
X-181760Y-200000D02*
X-138240D01*
X-190000Y-181760D02*
Y-158240D01*
X-90000Y-271760D02*
Y-248240D01*
X-81760Y-290000D02*
X-38240D01*
X-30000Y-271760D02*
Y-248240D01*
X-81760Y-230000D02*
X-38240D01*
X-181760Y-310000D02*
X-138240D01*
X-130000Y-351760D02*
Y-328240D01*
X-181760Y-370000D02*
X-138240D01*
X-190000Y-351760D02*
Y-328240D01*
X-290000Y-271760D02*
Y-248240D01*
X-281760Y-290000D02*
X-238240D01*
X-230000Y-271760D02*
Y-248240D01*
X-281760Y-230000D02*
X-238240D01*
X158240Y-290000D02*
X201760D01*
X210000Y-331760D02*
Y-308240D01*
X158240Y-350000D02*
X201760D01*
X150000Y-331760D02*
Y-308240D01*
X252500Y-254260D02*
Y-230740D01*
X260740Y-272500D02*
X304260D01*
X312500Y-254260D02*
Y-230740D01*
X260740Y-212500D02*
X304260D01*
X-190800Y-86270D02*
X-87940Y-86670D01*
X-190800Y-35000D02*
X-88438D01*
X-87930Y-85000D02*
Y-35000D01*
X-190800Y-85000D02*
Y-35000D01*
X-97115Y303454D02*
Y326584D01*
Y303454D02*
X76145D01*
X-97115Y326584D02*
X101267D01*
X76145Y303454D02*
X101545D01*
Y326314D01*
X390500Y121200D02*
Y137000D01*
X368200D02*
X390500D01*
X309500D02*
X331800D01*
X309500Y121200D02*
Y137000D01*
X390500Y94000D02*
Y95800D01*
X309500Y94000D02*
X390500D01*
X309500D02*
Y95800D01*
X-299500Y119325D02*
Y135125D01*
X-321800D02*
X-299500D01*
X-380500D02*
X-358200D01*
X-380500Y119325D02*
Y135125D01*
X-299500Y92125D02*
Y93925D01*
X-380500Y92125D02*
X-299500D01*
X-380500D02*
Y93925D01*
D16*
X-243930Y-49000D02*
X-215962D01*
X-243930D02*
Y-31000D01*
X-215962D01*
Y-49000D02*
Y-31000D01*
M02*
