G04*
G04 #@! TF.GenerationSoftware,Altium Limited,Altium Designer,22.3.1 (43)*
G04*
G04 Layer_Color=8421504*
%FSLAX44Y44*%
%MOMM*%
G71*
G04*
G04 #@! TF.SameCoordinates,4B90D417-7196-441A-B007-7CACEF84B99C*
G04*
G04*
G04 #@! TF.FilePolarity,Positive*
G04*
G01*
G75*
%ADD17R,1.3500X1.0000*%
%ADD18R,1.9000X1.9000*%
%ADD19R,0.4000X1.3500*%
%ADD20R,0.7000X1.2000*%
%ADD21R,0.5000X0.3500*%
%ADD22R,0.6000X1.7000*%
%ADD23R,0.6000X0.9000*%
%ADD24R,0.7000X0.9000*%
%ADD25O,1.4000X0.2700*%
%ADD26O,0.2700X1.4000*%
%ADD27O,0.6000X1.3500*%
%ADD28R,0.9000X0.8000*%
D17*
X-100000Y69000D02*
D03*
Y51000D02*
D03*
X-80000Y69000D02*
D03*
Y51000D02*
D03*
D18*
X389500Y108500D02*
D03*
X362000D02*
D03*
X338000D02*
D03*
X310500D02*
D03*
X-300500Y106625D02*
D03*
X-328000D02*
D03*
X-352000D02*
D03*
X-379500D02*
D03*
D19*
X363000Y135250D02*
D03*
X356500D02*
D03*
X350000D02*
D03*
X343500D02*
D03*
X337000D02*
D03*
X-327000Y133375D02*
D03*
X-333500D02*
D03*
X-340000D02*
D03*
X-346500D02*
D03*
X-353000D02*
D03*
D20*
X-221500Y-40000D02*
D03*
X-238500D02*
D03*
D21*
X-4676Y378756D02*
D03*
Y390256D02*
D03*
X10628D02*
D03*
Y378756D02*
D03*
X36471Y378756D02*
D03*
Y390256D02*
D03*
D22*
X-217000Y250000D02*
D03*
X-183000D02*
D03*
D23*
X-216500Y200000D02*
D03*
X-203500D02*
D03*
D24*
X-217750Y180000D02*
D03*
X-202250D02*
D03*
X-213621Y227040D02*
D03*
X-198121D02*
D03*
D25*
X57000Y27500D02*
D03*
Y32500D02*
D03*
Y22500D02*
D03*
Y37500D02*
D03*
Y2500D02*
D03*
Y7500D02*
D03*
Y-2500D02*
D03*
Y17500D02*
D03*
Y12500D02*
D03*
Y-17500D02*
D03*
Y-12500D02*
D03*
Y-7500D02*
D03*
Y-32500D02*
D03*
Y-27500D02*
D03*
Y-37500D02*
D03*
Y-22500D02*
D03*
X-57000Y-17500D02*
D03*
Y-22500D02*
D03*
Y17500D02*
D03*
Y22500D02*
D03*
Y12500D02*
D03*
Y32500D02*
D03*
Y37500D02*
D03*
Y27500D02*
D03*
Y-7500D02*
D03*
Y-2500D02*
D03*
Y-12500D02*
D03*
Y7500D02*
D03*
Y2500D02*
D03*
Y-32500D02*
D03*
Y-27500D02*
D03*
Y-37500D02*
D03*
D26*
X37500Y57000D02*
D03*
X7500D02*
D03*
X2500D02*
D03*
X12500D02*
D03*
X-7500D02*
D03*
X-12500D02*
D03*
X-2500D02*
D03*
X27500D02*
D03*
X22500D02*
D03*
X32500D02*
D03*
X17500D02*
D03*
X7500Y-57000D02*
D03*
X2500D02*
D03*
X12500D02*
D03*
X-7500D02*
D03*
X-2500D02*
D03*
X32500D02*
D03*
X27500D02*
D03*
X37500D02*
D03*
X17500D02*
D03*
X22500D02*
D03*
X-22500Y57000D02*
D03*
X-27500D02*
D03*
X-17500D02*
D03*
X-37500D02*
D03*
X-32500D02*
D03*
Y-57000D02*
D03*
X-27500D02*
D03*
X-17500D02*
D03*
X-22500D02*
D03*
X-12500D02*
D03*
X-37500D02*
D03*
D27*
X-190950Y47000D02*
D03*
X-203650D02*
D03*
X-216350D02*
D03*
X-229050D02*
D03*
X-190950Y-7000D02*
D03*
X-203650D02*
D03*
X-216350D02*
D03*
X-229050D02*
D03*
D28*
X-340000Y161750D02*
D03*
Y178250D02*
D03*
M02*
