G04*
G04 #@! TF.GenerationSoftware,Altium Limited,Altium Designer,22.3.1 (43)*
G04*
G04 Layer_Color=32896*
%FSLAX44Y44*%
%MOMM*%
G71*
G04*
G04 #@! TF.SameCoordinates,6D1C2D26-131F-4FF1-9C2C-6AC643E27ED1*
G04*
G04*
G04 #@! TF.FilePolarity,Positive*
G04*
G01*
G75*
%ADD10C,0.2000*%
%ADD11C,0.2540*%
%ADD12C,0.1000*%
%ADD13C,0.2500*%
%ADD14C,0.6000*%
%ADD15C,0.1270*%
%ADD110C,0.1540*%
D10*
X-87290Y409290D02*
G03*
X-87290Y409290I-1000J0D01*
G01*
X82710D02*
G03*
X82710Y409290I-1000J0D01*
G01*
X-245500Y41000D02*
G03*
X-245500Y41000I-1000J0D01*
G01*
X-245500Y111000D02*
G03*
X-245500Y111000I-1000J0D01*
G01*
X-52000Y271500D02*
Y288500D01*
X-28000Y271500D02*
Y288500D01*
X-306000Y225000D02*
X-274000D01*
X-306000Y175000D02*
X-274000D01*
X118000Y324000D02*
Y341000D01*
X142000Y324000D02*
Y341000D01*
X93500Y289500D02*
Y290500D01*
X86500Y289500D02*
Y290500D01*
X64000Y355500D02*
X76000D01*
X64000Y384500D02*
X76000D01*
X-24500Y365000D02*
X-15500D01*
X-24500Y335000D02*
Y365000D01*
X-15500Y335000D02*
Y365000D01*
X-24500Y335000D02*
X-15500D01*
X137500Y44000D02*
X242500D01*
X137500Y-4000D02*
X242500D01*
X137500D02*
Y44000D01*
X242500Y-4000D02*
Y44000D01*
X-280500Y316500D02*
X-279500D01*
X-280500Y323500D02*
X-279500D01*
X-255000Y307500D02*
Y352500D01*
X-225000Y307500D02*
Y352500D01*
X-155000Y404500D02*
X-145000D01*
X-155000Y435500D02*
X-145000D01*
X-155000Y404500D02*
Y435500D01*
X-145000Y404500D02*
Y435500D01*
X-195000Y314500D02*
X-185000D01*
X-195000Y345500D02*
X-185000D01*
X-195000Y314500D02*
Y345500D01*
X-185000Y314500D02*
Y345500D01*
X-301500Y282500D02*
X-265500D01*
Y267500D02*
Y282500D01*
Y237500D02*
Y252500D01*
X-301500Y237500D02*
X-265500D01*
X-310500Y267500D02*
Y273500D01*
X-301500Y282500D01*
X-310500Y246500D02*
X-301500Y237500D01*
X-310500Y246500D02*
Y252500D01*
X226000Y71000D02*
X234000D01*
X226000Y89000D02*
X234000D01*
X189000Y-66750D02*
X191000D01*
X189000Y-53250D02*
X191000D01*
D11*
X91542Y-120442D02*
G03*
X91542Y-120442I-2962J0D01*
G01*
X158581Y129560D02*
X160247Y131226D01*
X163580D01*
X165246Y129560D01*
Y122895D01*
X163580Y121229D01*
X160247D01*
X158581Y122895D01*
X155249D02*
X153583Y121229D01*
X150251D01*
X148584Y122895D01*
Y129560D01*
X150251Y131226D01*
X153583D01*
X155249Y129560D01*
Y127894D01*
X153583Y126228D01*
X148584D01*
X-120576Y295881D02*
Y301212D01*
X-117910Y298546D02*
X-123242D01*
X-120805Y325192D02*
Y330523D01*
X-38960Y-96047D02*
X-45624Y-106044D01*
Y-96047D02*
X-38960Y-106044D01*
X-55621D02*
X-48957D01*
X-55621Y-99380D01*
Y-97713D01*
X-53955Y-96047D01*
X-50623D01*
X-48957Y-97713D01*
X190315Y413974D02*
X191981Y415641D01*
X195313D01*
X196979Y413974D01*
Y412308D01*
X195313Y410642D01*
X191981D01*
X190315Y408976D01*
Y407310D01*
X191981Y405644D01*
X195313D01*
X196979Y407310D01*
X186983Y415641D02*
Y405644D01*
X183650Y408976D01*
X180318Y405644D01*
Y415641D01*
X176986Y405644D02*
X173654D01*
X175320D01*
Y415641D01*
X176986Y413974D01*
X168655D02*
X166989Y415641D01*
X163657D01*
X161991Y413974D01*
Y407310D01*
X163657Y405644D01*
X166989D01*
X168655Y407310D01*
Y413974D01*
X-193335Y173332D02*
X-191669Y174998D01*
X-188337D01*
X-186671Y173332D01*
Y171666D01*
X-188337Y170000D01*
X-191669D01*
X-193335Y168334D01*
Y166668D01*
X-191669Y165002D01*
X-188337D01*
X-186671Y166668D01*
X-196668Y174998D02*
Y165002D01*
X-200000Y168334D01*
X-203332Y165002D01*
Y174998D01*
X-206665Y166668D02*
X-208331Y165002D01*
X-211663D01*
X-213329Y166668D01*
Y173332D01*
X-211663Y174998D01*
X-208331D01*
X-206665Y173332D01*
Y171666D01*
X-208331Y170000D01*
X-213329D01*
X-203335Y23332D02*
X-201669Y24998D01*
X-198337D01*
X-196671Y23332D01*
Y21666D01*
X-198337Y20000D01*
X-201669D01*
X-203335Y18334D01*
Y16668D01*
X-201669Y15002D01*
X-198337D01*
X-196671Y16668D01*
X-206668Y24998D02*
Y15002D01*
X-210000Y18334D01*
X-213332Y15002D01*
Y24998D01*
X-216665Y23332D02*
X-218331Y24998D01*
X-221663D01*
X-223329Y23332D01*
Y21666D01*
X-221663Y20000D01*
X-223329Y18334D01*
Y16668D01*
X-221663Y15002D01*
X-218331D01*
X-216665Y16668D01*
Y18334D01*
X-218331Y20000D01*
X-216665Y21666D01*
Y23332D01*
X-218331Y20000D02*
X-221663D01*
X-68749Y407589D02*
X-67083Y409256D01*
X-63750D01*
X-62084Y407589D01*
Y405923D01*
X-63750Y404257D01*
X-67083D01*
X-68749Y402591D01*
Y400925D01*
X-67083Y399259D01*
X-63750D01*
X-62084Y400925D01*
X-72081Y409256D02*
Y399259D01*
X-75413Y402591D01*
X-78746Y399259D01*
Y409256D01*
X-82078Y399259D02*
X-85410D01*
X-83744D01*
Y409256D01*
X-82078Y407589D01*
X-120240Y124842D02*
Y134839D01*
X-125238D01*
X-126904Y133173D01*
Y129840D01*
X-125238Y128174D01*
X-120240D01*
X-123572D02*
X-126904Y124842D01*
X-130237D02*
X-133569D01*
X-131903D01*
Y134839D01*
X-130237Y133173D01*
X-138567D02*
X-140234Y134839D01*
X-143566D01*
X-145232Y133173D01*
Y131507D01*
X-143566Y129840D01*
X-141900D01*
X-143566D01*
X-145232Y128174D01*
Y126508D01*
X-143566Y124842D01*
X-140234D01*
X-138567Y126508D01*
X-110628Y56251D02*
Y63749D01*
X-114377D01*
X-115626Y62499D01*
Y60000D01*
X-114377Y58750D01*
X-110628D01*
X-113127D02*
X-115626Y56251D01*
X-118126D02*
X-120625D01*
X-119375D01*
Y63749D01*
X-118126Y62499D01*
X-129372Y56251D02*
X-124374D01*
X-129372Y61250D01*
Y62499D01*
X-128122Y63749D01*
X-125623D01*
X-124374Y62499D01*
X250830Y-84998D02*
Y-75002D01*
X245831D01*
X244165Y-76668D01*
Y-80000D01*
X245831Y-81666D01*
X250830D01*
X247498D02*
X244165Y-84998D01*
X240833D02*
X237501D01*
X239167D01*
Y-75002D01*
X240833Y-76668D01*
X232502Y-84998D02*
X229170D01*
X230836D01*
Y-75002D01*
X232502Y-76668D01*
X194494Y-45541D02*
Y-35545D01*
X189495D01*
X187829Y-37211D01*
Y-40543D01*
X189495Y-42209D01*
X194494D01*
X191161D02*
X187829Y-45541D01*
X184497D02*
X181165D01*
X182831D01*
Y-35545D01*
X184497Y-37211D01*
X176166D02*
X174500Y-35545D01*
X171168D01*
X169502Y-37211D01*
Y-43875D01*
X171168Y-45541D01*
X174500D01*
X176166Y-43875D01*
Y-37211D01*
X48331Y295002D02*
Y304998D01*
X43332D01*
X41666Y303332D01*
Y300000D01*
X43332Y298334D01*
X48331D01*
X44998D02*
X41666Y295002D01*
X38334Y304998D02*
X31669D01*
Y303332D01*
X38334Y296668D01*
Y295002D01*
X118331Y285002D02*
Y294998D01*
X113332D01*
X111666Y293332D01*
Y290000D01*
X113332Y288334D01*
X118331D01*
X114998D02*
X111666Y285002D01*
X101669Y294998D02*
X105002Y293332D01*
X108334Y290000D01*
Y286668D01*
X106668Y285002D01*
X103336D01*
X101669Y286668D01*
Y288334D01*
X103336Y290000D01*
X108334D01*
X-267565Y329325D02*
Y339322D01*
X-272564D01*
X-274230Y337655D01*
Y334323D01*
X-272564Y332657D01*
X-267565D01*
X-270897D02*
X-274230Y329325D01*
X-284226Y339322D02*
X-277562D01*
Y334323D01*
X-280894Y335989D01*
X-282560D01*
X-284226Y334323D01*
Y330991D01*
X-282560Y329325D01*
X-279228D01*
X-277562Y330991D01*
X-229073Y369566D02*
Y379563D01*
X-234072D01*
X-235738Y377897D01*
Y374565D01*
X-234072Y372899D01*
X-229073D01*
X-232405D02*
X-235738Y369566D01*
X-244068D02*
Y379563D01*
X-239070Y374565D01*
X-245734D01*
X-120000Y406668D02*
Y413332D01*
X-118334Y414998D01*
X-115002D01*
X-113336Y413332D01*
Y406668D01*
X-115002Y405002D01*
X-118334D01*
X-116668Y408334D02*
X-120000Y405002D01*
X-118334D02*
X-120000Y406668D01*
X-123332Y405002D02*
X-126664D01*
X-124998D01*
Y414998D01*
X-123332Y413332D01*
X16665Y384998D02*
Y375002D01*
X10000D01*
X6668D02*
X3336D01*
X5002D01*
Y384998D01*
X6668Y383332D01*
X112382Y59044D02*
Y53965D01*
Y56505D01*
X127618D01*
Y59044D01*
Y53965D01*
X114922Y36191D02*
X112382Y38730D01*
Y43809D01*
X114922Y46348D01*
X125078D01*
X127618Y43809D01*
Y38730D01*
X125078Y36191D01*
X112382Y20956D02*
Y31113D01*
X120000D01*
X117461Y26035D01*
Y23495D01*
X120000Y20956D01*
X125078D01*
X127618Y23495D01*
Y28574D01*
X125078Y31113D01*
X32496Y354998D02*
X29164D01*
X30830D01*
Y345002D01*
X32496D01*
X29164D01*
X17501Y353332D02*
X19167Y354998D01*
X22499D01*
X24165Y353332D01*
Y346668D01*
X22499Y345002D01*
X19167D01*
X17501Y346668D01*
X14169Y353332D02*
X12502Y354998D01*
X9170D01*
X7504Y353332D01*
Y351666D01*
X9170Y350000D01*
X10836D01*
X9170D01*
X7504Y348334D01*
Y346668D01*
X9170Y345002D01*
X12502D01*
X14169Y346668D01*
X-183740Y365979D02*
X-187072D01*
X-185406D01*
Y355982D01*
X-183740D01*
X-187072D01*
X-198735Y364313D02*
X-197069Y365979D01*
X-193737D01*
X-192071Y364313D01*
Y357648D01*
X-193737Y355982D01*
X-197069D01*
X-198735Y357648D01*
X-208732Y355982D02*
X-202067D01*
X-208732Y362646D01*
Y364313D01*
X-207066Y365979D01*
X-203734D01*
X-202067Y364313D01*
X-301861Y240818D02*
X-305194D01*
X-303527D01*
Y230822D01*
X-301861D01*
X-305194D01*
X-316856Y239152D02*
X-315190Y240818D01*
X-311858D01*
X-310192Y239152D01*
Y232488D01*
X-311858Y230822D01*
X-315190D01*
X-316856Y232488D01*
X-320189Y230822D02*
X-323521D01*
X-321855D01*
Y240818D01*
X-320189Y239152D01*
X106664Y344998D02*
Y335002D01*
X101666D01*
X100000Y336668D01*
Y343332D01*
X101666Y344998D01*
X106664D01*
X96668Y335002D02*
X93336D01*
X95002D01*
Y344998D01*
X96668Y343332D01*
X-283332Y135831D02*
X-284998Y137498D01*
Y140830D01*
X-283332Y142496D01*
X-276668D01*
X-275002Y140830D01*
Y137498D01*
X-276668Y135831D01*
X-275002Y132499D02*
Y129167D01*
Y130833D01*
X-284998D01*
X-283332Y132499D01*
X-275002Y117504D02*
Y124169D01*
X-281666Y117504D01*
X-283332D01*
X-284998Y119170D01*
Y122502D01*
X-283332Y124169D01*
X24165Y-96668D02*
X25831Y-95002D01*
X29164D01*
X30830Y-96668D01*
Y-103332D01*
X29164Y-104998D01*
X25831D01*
X24165Y-103332D01*
X20833Y-104998D02*
X17501D01*
X19167D01*
Y-95002D01*
X20833Y-96668D01*
X12502Y-104998D02*
X9170D01*
X10836D01*
Y-95002D01*
X12502Y-96668D01*
X245832Y103332D02*
X247498Y104998D01*
X250830D01*
X252496Y103332D01*
Y96668D01*
X250830Y95002D01*
X247498D01*
X245832Y96668D01*
X242499Y95002D02*
X239167D01*
X240833D01*
Y104998D01*
X242499Y103332D01*
X234168D02*
X232502Y104998D01*
X229170D01*
X227504Y103332D01*
Y96668D01*
X229170Y95002D01*
X232502D01*
X234168Y96668D01*
Y103332D01*
X147669Y103709D02*
X149336Y105375D01*
X152668D01*
X154334Y103709D01*
Y97044D01*
X152668Y95378D01*
X149336D01*
X147669Y97044D01*
X144337Y103709D02*
X142671Y105375D01*
X139339D01*
X137673Y103709D01*
Y102043D01*
X139339Y100376D01*
X137673Y98710D01*
Y97044D01*
X139339Y95378D01*
X142671D01*
X144337Y97044D01*
Y98710D01*
X142671Y100376D01*
X144337Y102043D01*
Y103709D01*
X142671Y100376D02*
X139339D01*
X249380Y-40781D02*
X251046Y-39115D01*
X254378D01*
X256044Y-40781D01*
Y-47446D01*
X254378Y-49112D01*
X251046D01*
X249380Y-47446D01*
X246047Y-39115D02*
X239383D01*
Y-40781D01*
X246047Y-47446D01*
Y-49112D01*
X91666Y-176668D02*
X93332Y-175002D01*
X96664D01*
X98331Y-176668D01*
Y-183332D01*
X96664Y-184998D01*
X93332D01*
X91666Y-183332D01*
X81669Y-175002D02*
X85002Y-176668D01*
X88334Y-180000D01*
Y-183332D01*
X86668Y-184998D01*
X83336D01*
X81669Y-183332D01*
Y-181666D01*
X83336Y-180000D01*
X88334D01*
X1666Y-176668D02*
X3332Y-175002D01*
X6665D01*
X8331Y-176668D01*
Y-183332D01*
X6665Y-184998D01*
X3332D01*
X1666Y-183332D01*
X-8331Y-175002D02*
X-1666D01*
Y-180000D01*
X-4998Y-178334D01*
X-6665D01*
X-8331Y-180000D01*
Y-183332D01*
X-6665Y-184998D01*
X-3332D01*
X-1666Y-183332D01*
X131666Y373332D02*
X133332Y374998D01*
X136664D01*
X138331Y373332D01*
Y366668D01*
X136664Y365002D01*
X133332D01*
X131666Y366668D01*
X123336Y365002D02*
Y374998D01*
X128334Y370000D01*
X121669D01*
X-20670Y298040D02*
X-22336Y299706D01*
Y303038D01*
X-20670Y304704D01*
X-14006D01*
X-12340Y303038D01*
Y299706D01*
X-14006Y298040D01*
X-20670Y294708D02*
X-22336Y293041D01*
Y289709D01*
X-20670Y288043D01*
X-19004D01*
X-17338Y289709D01*
Y291375D01*
Y289709D01*
X-15672Y288043D01*
X-14006D01*
X-12340Y289709D01*
Y293041D01*
X-14006Y294708D01*
X-148334Y333332D02*
X-146668Y334998D01*
X-143336D01*
X-141669Y333332D01*
Y326668D01*
X-143336Y325002D01*
X-146668D01*
X-148334Y326668D01*
X-158331Y325002D02*
X-151666D01*
X-158331Y331666D01*
Y333332D01*
X-156664Y334998D01*
X-153332D01*
X-151666Y333332D01*
X-310000Y293332D02*
X-308334Y294998D01*
X-305002D01*
X-303335Y293332D01*
Y286668D01*
X-305002Y285002D01*
X-308334D01*
X-310000Y286668D01*
X-313332Y285002D02*
X-316665D01*
X-314998D01*
Y294998D01*
X-313332Y293332D01*
X-102453Y368339D02*
Y358342D01*
X-107451D01*
X-109118Y360008D01*
Y361674D01*
X-107451Y363341D01*
X-102453D01*
X-107451D01*
X-109118Y365007D01*
Y366673D01*
X-107451Y368339D01*
X-102453D01*
X-112450Y358342D02*
Y365007D01*
X-115782Y368339D01*
X-119114Y365007D01*
Y358342D01*
Y363341D01*
X-112450D01*
X-122447Y368339D02*
X-129111D01*
X-125779D01*
Y358342D01*
D12*
X210500Y68750D02*
G03*
X210500Y68750I-500J0D01*
G01*
D13*
X-315750Y172700D02*
G03*
X-315750Y172700I-1250J0D01*
G01*
X47000Y352500D02*
G03*
X47000Y352500I-1250J0D01*
G01*
X-5000Y368000D02*
G03*
X-5000Y368000I-1250J0D01*
G01*
X141250Y55500D02*
G03*
X141250Y55500I-1250J0D01*
G01*
X-162500Y402000D02*
G03*
X-162500Y402000I-1250J0D01*
G01*
X-202500Y312000D02*
G03*
X-202500Y312000I-1250J0D01*
G01*
D14*
X150500Y34000D02*
G03*
X150500Y34000I-3000J0D01*
G01*
D15*
X-31500Y437460D02*
Y442540D01*
X-80000Y427000D02*
X-65000D01*
X-93300Y453000D02*
X-36700D01*
X-98500Y437460D02*
Y442540D01*
X138500Y437460D02*
Y442540D01*
X76700Y453000D02*
X133300D01*
X71500Y437460D02*
Y442540D01*
X90000Y427000D02*
X105000D01*
X-224500Y87200D02*
X-175500D01*
X-224500Y32800D02*
X-175500D01*
X-224500Y157200D02*
X-175500D01*
X-224500Y102800D02*
X-175500D01*
X77000Y-126000D02*
Y-116500D01*
X-37000D02*
X77000D01*
X-37000Y-126000D02*
Y-116500D01*
Y-163500D02*
Y-154000D01*
Y-163500D02*
X77000D01*
Y-154000D01*
D110*
X-135782Y273341D02*
X-95782D01*
X-135782Y353341D02*
X-95782D01*
Y273341D02*
Y353341D01*
X-135782Y273341D02*
Y353341D01*
M02*
