G04*
G04 #@! TF.GenerationSoftware,Altium Limited,Altium Designer,22.3.1 (43)*
G04*
G04 Layer_Color=16711935*
%FSLAX44Y44*%
%MOMM*%
G71*
G04*
G04 #@! TF.SameCoordinates,6D1C2D26-131F-4FF1-9C2C-6AC643E27ED1*
G04*
G04*
G04 #@! TF.FilePolarity,Positive*
G04*
G01*
G75*
%ADD11C,0.2540*%
%ADD15C,0.1270*%
D11*
X-360000Y-432500D02*
G03*
X-302500Y-365000I-110750J152583D01*
G01*
X-237500Y-342500D02*
G03*
X-302500Y-365000I-21250J-43750D01*
G01*
X-210000Y-390000D02*
G03*
X-237500Y-342500I-121539J-38654D01*
G01*
X-210000Y-485000D02*
G03*
X-147500Y-550000I68853J3657D01*
G01*
D02*
G03*
X-70000Y-480000I6906J70255D01*
G01*
X-48350Y-441577D02*
G03*
X-70000Y-480000I52125J-54682D01*
G01*
X22500Y-420000D02*
G03*
X-48350Y-441577I-16250J-73750D01*
G01*
X82414Y-487024D02*
G03*
X22500Y-420000I-63469J3555D01*
G01*
X82414Y-487024D02*
G03*
X172843Y-547688I70419J7240D01*
G01*
X172843Y-547688D02*
G03*
X222500Y-490000I-19859J67311D01*
G01*
X412500Y80000D02*
G03*
X-392500Y80000I-402500J0D01*
G01*
D15*
X315000Y-365000D02*
G03*
X225000Y-382500I-42888J-19612D01*
G01*
X315000Y-365000D02*
G03*
X378474Y-438270I150500J66250D01*
G01*
D02*
G03*
X445000Y-437500I32805J39944D01*
G01*
Y-437500D02*
G03*
X462894Y-400118I-39599J41929D01*
G01*
D02*
G03*
X465059Y-374623I-59675J17907D01*
G01*
X465059Y-374623D02*
G03*
X442500Y-295000I-98251J15171D01*
G01*
X372500Y-190000D02*
G03*
X442500Y-295000I628439J343126D01*
G01*
X342833Y-127927D02*
G03*
X372500Y-190000I907763J395725D01*
G01*
X325000Y-67500D02*
G03*
X342833Y-127927I496430J113661D01*
G01*
X312500Y22500D02*
G03*
X325000Y-67500I649941J44401D01*
G01*
X-298920Y39342D02*
X-298613Y80298D01*
X-299690Y18555D02*
X-298920Y39342D01*
X-302308Y-12855D02*
X-299690Y18555D01*
X-305695Y-37953D02*
X-302308Y-12855D01*
X-309545Y-57507D02*
X-305695Y-37953D01*
X-315088Y-80449D02*
X-309545Y-57507D01*
X-321400Y-102313D02*
X-315088Y-80449D01*
X-328175Y-122176D02*
X-321400Y-102313D01*
X-335412Y-140191D02*
X-328175Y-122176D01*
X-342957Y-157282D02*
X-335412Y-140191D01*
X-353889Y-179300D02*
X-342957Y-157282D01*
X-363127Y-196391D02*
X-353889Y-179300D01*
X-372519Y-212712D02*
X-363127Y-196391D01*
X-379140Y-223028D02*
X-372519Y-212712D01*
X-390380Y-240273D02*
X-379140Y-223028D01*
X-400542Y-255054D02*
X-390380Y-240273D01*
X-411474Y-269990D02*
X-400542Y-255054D01*
X-419943Y-280768D02*
X-411474Y-269990D01*
X-433954Y-297243D02*
X-419943Y-280768D01*
X-438420Y-304633D02*
X-433954Y-297243D01*
X-444758Y-319861D02*
X-438420Y-304633D01*
X-447807Y-329007D02*
X-444758Y-319861D01*
X-450440Y-340787D02*
X-447807Y-329007D01*
X-452380Y-352844D02*
X-450440Y-340787D01*
X-453489Y-361852D02*
X-452380Y-352844D01*
X-453587Y-375539D02*
X-453489Y-361852D01*
X-453587Y-375539D02*
X-452986Y-382597D01*
X-451484Y-394761D01*
X-449682Y-402870D01*
X-447880Y-409328D01*
X-445928Y-416086D01*
X-443675Y-422093D01*
X-440972Y-427649D01*
X-436110Y-433444D01*
X-432193Y-437547D01*
X-426226Y-441929D01*
X-416901Y-446312D01*
X-412239Y-447990D01*
X-404127Y-449482D01*
X-394522Y-449016D01*
X-384265Y-446778D01*
X-376899Y-443515D01*
X-360000Y-432500D01*
X-210000Y-485000D02*
Y-390000D01*
X222500Y-490000D02*
Y-395000D01*
X225000Y-382500D01*
X312500Y22500D02*
Y42500D01*
Y65000D01*
Y80000D01*
X412500D01*
X-392500D02*
X-300000D01*
M02*
