G04*
G04 #@! TF.GenerationSoftware,Altium Limited,Altium Designer,22.3.1 (43)*
G04*
G04 Layer_Color=16711935*
%FSLAX44Y44*%
%MOMM*%
G71*
G04*
G04 #@! TF.SameCoordinates,6D1C2D26-131F-4FF1-9C2C-6AC643E27ED1*
G04*
G04*
G04 #@! TF.FilePolarity,Positive*
G04*
G01*
G75*
%ADD10C,0.2000*%
%ADD11C,0.2540*%
%ADD12C,0.1000*%
%ADD15C,0.1270*%
%ADD111R,0.6187X2.9000*%
%ADD112R,0.4573X1.8000*%
D10*
X-196300Y-47300D02*
G03*
X-196300Y-47300I-1000J0D01*
G01*
X-85415Y336584D02*
G03*
X-85415Y336584I-1000J0D01*
G01*
X330000Y141500D02*
G03*
X330000Y141500I-1000J0D01*
G01*
X-360000Y139625D02*
G03*
X-360000Y139625I-1000J0D01*
G01*
X-87290Y409290D02*
G03*
X-87290Y409290I-1000J0D01*
G01*
X82710D02*
G03*
X82710Y409290I-1000J0D01*
G01*
X-245500Y41000D02*
G03*
X-245500Y41000I-1000J0D01*
G01*
X-245500Y111000D02*
G03*
X-245500Y111000I-1000J0D01*
G01*
D11*
X403250Y95250D02*
Y101344D01*
X406297D01*
X407313Y100328D01*
Y98297D01*
X406297Y97281D01*
X403250D01*
X413407Y100328D02*
X412391Y101344D01*
X410360D01*
X409344Y100328D01*
Y96266D01*
X410360Y95250D01*
X412391D01*
X413407Y96266D01*
X415438Y101344D02*
Y95250D01*
X418485D01*
X419501Y96266D01*
Y97281D01*
X418485Y98297D01*
X415438D01*
X418485D01*
X419501Y99313D01*
Y100328D01*
X418485Y101344D01*
X415438D01*
X431689D02*
X427626D01*
Y95250D01*
X431689D01*
X427626Y98297D02*
X429657D01*
X433720Y101344D02*
Y95250D01*
X436767D01*
X437783Y96266D01*
Y100328D01*
X436767Y101344D01*
X433720D01*
X443877Y100328D02*
X442861Y101344D01*
X440830D01*
X439814Y100328D01*
Y96266D01*
X440830Y95250D01*
X442861D01*
X443877Y96266D01*
Y98297D01*
X441845D01*
X449971Y101344D02*
X445908D01*
Y95250D01*
X449971D01*
X445908Y98297D02*
X447939D01*
X-286750Y93375D02*
Y99469D01*
X-283703D01*
X-282687Y98453D01*
Y96422D01*
X-283703Y95406D01*
X-286750D01*
X-276593Y98453D02*
X-277609Y99469D01*
X-279640D01*
X-280656Y98453D01*
Y94391D01*
X-279640Y93375D01*
X-277609D01*
X-276593Y94391D01*
X-274562Y99469D02*
Y93375D01*
X-271515D01*
X-270499Y94391D01*
Y95406D01*
X-271515Y96422D01*
X-274562D01*
X-271515D01*
X-270499Y97438D01*
Y98453D01*
X-271515Y99469D01*
X-274562D01*
X-258311D02*
X-262374D01*
Y93375D01*
X-258311D01*
X-262374Y96422D02*
X-260343D01*
X-256280Y99469D02*
Y93375D01*
X-253233D01*
X-252217Y94391D01*
Y98453D01*
X-253233Y99469D01*
X-256280D01*
X-246123Y98453D02*
X-247139Y99469D01*
X-249170D01*
X-250186Y98453D01*
Y94391D01*
X-249170Y93375D01*
X-247139D01*
X-246123Y94391D01*
Y96422D01*
X-248155D01*
X-240029Y99469D02*
X-244092D01*
Y93375D01*
X-240029D01*
X-244092Y96422D02*
X-242061D01*
D12*
X-296000Y184000D02*
G03*
X-296000Y184000I-5000J0D01*
G01*
X-36000Y-41000D02*
G03*
X-36000Y-41000I-5000J0D01*
G01*
X-221000Y9000D02*
G03*
X-221000Y9000I-5000J0D01*
G01*
X151500Y39000D02*
G03*
X151500Y39000I-5000J0D01*
G01*
X-93250Y49500D02*
Y70500D01*
X-106750Y49500D02*
Y70500D01*
X-93250D01*
X-106750Y49500D02*
X-93250D01*
X-240500Y-46500D02*
Y-33500D01*
X-219500Y-46500D02*
Y-33500D01*
X-240500D02*
X-219500D01*
X-240500Y-46500D02*
X-219500D01*
X-155301Y62168D02*
X-141301D01*
X-155301Y52168D02*
X-141301D01*
Y62168D01*
X-155301Y52168D02*
Y62168D01*
X233000Y-65000D02*
Y-55000D01*
X247000Y-65000D02*
Y-55000D01*
X233000Y-65000D02*
X247000D01*
X233000Y-55000D02*
X247000D01*
X-145000Y107000D02*
X-135000D01*
X-145000Y93000D02*
X-135000D01*
X-145000D02*
Y107000D01*
X-135000Y93000D02*
Y107000D01*
X-7426Y379006D02*
X-1926D01*
X-7426Y390006D02*
X-1926D01*
X-7426Y379006D02*
Y390006D01*
X-1926Y379006D02*
Y390006D01*
X13378Y379006D02*
Y390006D01*
X7878Y379006D02*
Y390006D01*
X13378D01*
X7878Y379006D02*
X13378D01*
X33721Y379006D02*
X39221D01*
X33721Y390005D02*
X39221D01*
X33721Y379006D02*
Y390005D01*
X39221Y379006D02*
Y390005D01*
X-26000Y261500D02*
Y298500D01*
X-54000D02*
X-26000D01*
X-54000Y261500D02*
Y298500D01*
Y261500D02*
X-26000D01*
X-310000Y225000D02*
X-270000D01*
X-310000Y175000D02*
X-270000D01*
Y225000D01*
X-310000Y175000D02*
Y225000D01*
X-217000Y241000D02*
Y259000D01*
Y241000D02*
X-183000D01*
X-217000Y259000D02*
X-183000D01*
Y241000D02*
Y259000D01*
X-218000Y204200D02*
X-202000D01*
X-218000Y195800D02*
X-202000D01*
Y204200D01*
X-218000Y195800D02*
Y204200D01*
X-217000Y184500D02*
X-203000D01*
X-217000Y175500D02*
X-203000D01*
Y184500D01*
X-217000Y175500D02*
Y184500D01*
X-212871Y231540D02*
X-198871D01*
X-212871Y222540D02*
X-198871D01*
Y231540D01*
X-212871Y222540D02*
Y231540D01*
X4943Y-72123D02*
X26943D01*
X4943Y-86622D02*
X26943D01*
Y-72123D01*
X4943Y-86622D02*
Y-72123D01*
X-264750Y121250D02*
X-255250D01*
X-264750Y138750D02*
X-255250D01*
Y121250D02*
Y138750D01*
X-264750Y121250D02*
Y138750D01*
X50000Y-50000D02*
Y50000D01*
X-50000D02*
X50000D01*
X-50000Y-50000D02*
X50000D01*
X-50000D02*
Y50000D01*
X-86750Y70500D02*
X-73250D01*
Y49500D02*
Y70500D01*
X-86750Y49500D02*
X-73250D01*
X-86750D02*
Y70500D01*
X116000Y314000D02*
X144000D01*
Y351000D01*
X116000Y314000D02*
Y351000D01*
X144000D01*
X85500Y298500D02*
X94500D01*
X85500Y281500D02*
Y298500D01*
Y281500D02*
X94500D01*
Y298500D01*
X33000Y284500D02*
X47000D01*
Y275500D02*
Y284500D01*
X33000Y275500D02*
X47000D01*
X33000D02*
Y284500D01*
X93000Y355500D02*
Y384500D01*
X47000D02*
X93000D01*
X47000Y355500D02*
X93000D01*
X47000D02*
Y384500D01*
X-28750Y384750D02*
X-11250D01*
Y375250D02*
Y384750D01*
X-28750Y375250D02*
X-11250D01*
X-28750D02*
Y384750D01*
X-28500Y335000D02*
Y365000D01*
X-11500D01*
X-28500Y335000D02*
X-11500D01*
Y365000D01*
X-185000Y0D02*
Y40000D01*
X-235000Y0D02*
Y40000D01*
X-185000D01*
X-235000Y0D02*
X-185000D01*
X65600Y-183250D02*
Y-176750D01*
X54400Y-183250D02*
Y-176750D01*
X65600D01*
X54400Y-183250D02*
X65600D01*
X-24400D02*
Y-176750D01*
X-35600Y-183250D02*
Y-176750D01*
X-24400D01*
X-35600Y-183250D02*
X-24400D01*
X137500Y48000D02*
X242500D01*
X137500Y-8000D02*
X242500D01*
X137500D02*
Y48000D01*
X242500Y-8000D02*
Y48000D01*
X-288500Y315500D02*
Y324500D01*
X-271500Y315500D02*
Y324500D01*
X-288500Y315500D02*
X-271500D01*
X-288500Y324500D02*
X-271500D01*
X-257000Y362250D02*
X-223000D01*
X-257000Y297750D02*
X-223000D01*
X-257000D02*
Y362250D01*
X-223000Y297750D02*
Y362250D01*
X-158750Y404750D02*
Y435250D01*
X-141250Y404750D02*
Y435250D01*
X-158750Y404750D02*
X-141250D01*
X-158750Y435250D02*
X-141250D01*
X-141250Y305250D02*
Y314750D01*
X-158750Y305250D02*
Y314750D01*
X-141250D01*
X-158750Y305250D02*
X-141250D01*
X-198750Y314750D02*
Y345250D01*
X-181250Y314750D02*
Y345250D01*
X-198750Y314750D02*
X-181250D01*
X-198750Y345250D02*
X-181250D01*
X-310500Y246500D02*
Y273500D01*
X-301500Y282500D01*
X-265500D01*
Y237500D02*
Y282500D01*
X-301500Y237500D02*
X-265500D01*
X-310500Y246500D02*
X-301500Y237500D01*
X-344500Y161500D02*
X-335500D01*
X-344500Y178500D02*
X-335500D01*
X-344500Y161500D02*
Y178500D01*
X-335500Y161500D02*
Y178500D01*
X233550Y-48128D02*
Y-38628D01*
X216050Y-48128D02*
Y-38628D01*
X233550D01*
X216050Y-48128D02*
X233550D01*
X213000Y71000D02*
Y89000D01*
X247000Y71000D02*
Y89000D01*
X213000Y71000D02*
X247000D01*
X213000Y89000D02*
X247000D01*
X198277Y78862D02*
Y88362D01*
X180777Y78862D02*
Y88362D01*
X198277D01*
X180777Y78862D02*
X198277D01*
X158750Y75250D02*
Y84750D01*
X141250Y75250D02*
Y84750D01*
X158750D01*
X141250Y75250D02*
X158750D01*
X179500Y-65750D02*
Y-54250D01*
X200500Y-65750D02*
Y-54250D01*
X179500Y-65750D02*
X200500D01*
X179500Y-54250D02*
X200500D01*
D15*
X-190000Y-140000D02*
X-130000D01*
Y-200000D02*
Y-140000D01*
X-190000Y-200000D02*
X-130000D01*
X-190000D02*
Y-140000D01*
X-90000Y-290000D02*
Y-230000D01*
Y-290000D02*
X-30000D01*
Y-230000D01*
X-90000D02*
X-30000D01*
X-190000Y-310000D02*
X-130000D01*
Y-370000D02*
Y-310000D01*
X-190000Y-370000D02*
X-130000D01*
X-190000D02*
Y-310000D01*
X-290000Y-290000D02*
Y-230000D01*
Y-290000D02*
X-230000D01*
Y-230000D01*
X-290000D02*
X-230000D01*
X150000Y-290000D02*
X210000D01*
Y-350000D02*
Y-290000D01*
X150000Y-350000D02*
X210000D01*
X150000D02*
Y-290000D01*
X252500Y-272500D02*
Y-212500D01*
Y-272500D02*
X312500D01*
Y-212500D01*
X252500D02*
X312500D01*
X-190800Y-34600D02*
X-87930D01*
X-190800Y-85000D02*
Y-34600D01*
X-87930Y-85000D02*
Y-35000D01*
X-190800Y-86270D02*
X-87652Y-86288D01*
X-190800Y-86270D02*
X-87652Y-86288D01*
X-97115Y303454D02*
Y326584D01*
Y303454D02*
X101275D01*
X-97115Y326584D02*
X101267D01*
X101275Y303454D02*
Y326584D01*
X309500Y94000D02*
X410000D01*
X309500D02*
Y137000D01*
Y80700D02*
Y94000D01*
Y80700D02*
X390500D01*
Y137000D01*
X309500D02*
X390500D01*
X-380500Y92125D02*
X-280000D01*
X-380500D02*
Y135125D01*
Y78825D02*
Y92125D01*
Y78825D02*
X-299500D01*
Y135125D01*
X-380500D02*
X-299500D01*
X-51000Y453000D02*
Y467000D01*
Y453000D02*
X-31500D01*
X-64000Y467000D02*
X-51000D01*
X-64000Y453000D02*
Y467000D01*
Y453000D02*
X-51000D01*
X-31500Y427000D02*
Y453000D01*
X-98500D02*
X-64000D01*
X-98500Y427000D02*
X-31500D01*
X-98500D02*
Y453000D01*
X119000D02*
Y467000D01*
X106000D02*
X119000D01*
X106000Y453000D02*
Y467000D01*
X119000Y453000D02*
X138500D01*
X106000D02*
X119000D01*
X71500D02*
X106000D01*
X71500Y427000D02*
X138500D01*
Y453000D01*
X71500Y427000D02*
Y453000D01*
X-175500Y35000D02*
Y85000D01*
X-224500Y35000D02*
X-175500D01*
X-224500D02*
Y85000D01*
X-175500D01*
X-175500Y105000D02*
Y155000D01*
X-224500Y105000D02*
X-175500D01*
X-224500D02*
Y155000D01*
X-175500D01*
X77000Y-163500D02*
Y-116500D01*
X-37000Y-163500D02*
X77000D01*
X-37000D02*
Y-116500D01*
X77000D01*
D111*
X50093Y370000D02*
D03*
D112*
X215287Y80000D02*
D03*
M02*
