G04*
G04 #@! TF.GenerationSoftware,Altium Limited,Altium Designer,22.3.1 (43)*
G04*
G04 Layer_Physical_Order=1*
G04 Layer_Color=255*
%FSLAX44Y44*%
%MOMM*%
G71*
G04*
G04 #@! TF.SameCoordinates,6D1C2D26-131F-4FF1-9C2C-6AC643E27ED1*
G04*
G04*
G04 #@! TF.FilePolarity,Positive*
G04*
G01*
G75*
%ADD11C,0.2540*%
%ADD15C,0.1270*%
%ADD17R,1.3500X1.0000*%
%ADD18R,1.9000X1.9000*%
%ADD19R,0.4000X1.3500*%
%ADD20R,0.7000X1.2000*%
%ADD21R,0.5000X0.3500*%
%ADD22R,0.6000X1.7000*%
%ADD23R,0.6000X0.9000*%
%ADD24R,0.7000X0.9000*%
%ADD25O,1.4000X0.2700*%
%ADD26O,0.2700X1.4000*%
%ADD27O,0.6000X1.3500*%
%ADD28R,0.9000X0.8000*%
%ADD52C,0.4000*%
%ADD53C,0.2032*%
%ADD54C,0.2030*%
%ADD55C,0.4030*%
%ADD56C,0.5000*%
%ADD57R,1.5080X1.5080*%
%ADD58C,1.5080*%
%ADD59C,1.3500*%
%ADD60R,1.3500X1.3500*%
%ADD61R,1.3980X1.3980*%
%ADD62C,1.3980*%
%ADD63C,0.2500*%
%ADD64R,1.0000X1.5000*%
%ADD65O,1.0000X1.5000*%
%ADD66C,0.9000*%
%ADD67C,0.6000*%
D11*
X-195161Y230000D02*
X-180000D01*
X-170000Y240000D01*
Y250000D01*
X-183000D02*
X-170000D01*
D15*
X10314Y390570D02*
X11692D01*
X-92152Y271243D02*
X-83747D01*
X-92152D02*
X-92152D01*
X-83747D02*
X-50000Y304990D01*
Y329256D01*
X-49256Y330000D01*
X-38877D01*
X9878Y378756D02*
X10628D01*
X-38877Y330000D02*
X9878Y378756D01*
D17*
X-100000Y69000D02*
D03*
Y51000D02*
D03*
X-80000Y69000D02*
D03*
Y51000D02*
D03*
D18*
X389500Y108500D02*
D03*
X362000D02*
D03*
X338000D02*
D03*
X310500D02*
D03*
X-300500Y106625D02*
D03*
X-328000D02*
D03*
X-352000D02*
D03*
X-379500D02*
D03*
D19*
X363000Y135250D02*
D03*
X356500D02*
D03*
X350000D02*
D03*
X343500D02*
D03*
X337000D02*
D03*
X-327000Y133375D02*
D03*
X-333500D02*
D03*
X-340000D02*
D03*
X-346500D02*
D03*
X-353000D02*
D03*
D20*
X-221500Y-40000D02*
D03*
X-238500D02*
D03*
D21*
X-4676Y378756D02*
D03*
Y390256D02*
D03*
X10628D02*
D03*
Y378756D02*
D03*
X36471Y378756D02*
D03*
Y390256D02*
D03*
D22*
X-217000Y250000D02*
D03*
X-183000D02*
D03*
D23*
X-216500Y200000D02*
D03*
X-203500D02*
D03*
D24*
X-217750Y180000D02*
D03*
X-202250D02*
D03*
X-213621Y227040D02*
D03*
X-198121D02*
D03*
D25*
X57000Y27500D02*
D03*
Y32500D02*
D03*
Y22500D02*
D03*
Y37500D02*
D03*
Y2500D02*
D03*
Y7500D02*
D03*
Y-2500D02*
D03*
Y17500D02*
D03*
Y12500D02*
D03*
Y-17500D02*
D03*
Y-12500D02*
D03*
Y-7500D02*
D03*
Y-32500D02*
D03*
Y-27500D02*
D03*
Y-37500D02*
D03*
Y-22500D02*
D03*
X-57000Y-17500D02*
D03*
Y-22500D02*
D03*
Y17500D02*
D03*
Y22500D02*
D03*
Y12500D02*
D03*
Y32500D02*
D03*
Y37500D02*
D03*
Y27500D02*
D03*
Y-7500D02*
D03*
Y-2500D02*
D03*
Y-12500D02*
D03*
Y7500D02*
D03*
Y2500D02*
D03*
Y-32500D02*
D03*
Y-27500D02*
D03*
Y-37500D02*
D03*
D26*
X37500Y57000D02*
D03*
X7500D02*
D03*
X2500D02*
D03*
X12500D02*
D03*
X-7500D02*
D03*
X-12500D02*
D03*
X-2500D02*
D03*
X27500D02*
D03*
X22500D02*
D03*
X32500D02*
D03*
X17500D02*
D03*
X7500Y-57000D02*
D03*
X2500D02*
D03*
X12500D02*
D03*
X-7500D02*
D03*
X-2500D02*
D03*
X32500D02*
D03*
X27500D02*
D03*
X37500D02*
D03*
X17500D02*
D03*
X22500D02*
D03*
X-22500Y57000D02*
D03*
X-27500D02*
D03*
X-17500D02*
D03*
X-37500D02*
D03*
X-32500D02*
D03*
Y-57000D02*
D03*
X-27500D02*
D03*
X-17500D02*
D03*
X-22500D02*
D03*
X-12500D02*
D03*
X-37500D02*
D03*
D27*
X-190950Y47000D02*
D03*
X-203650D02*
D03*
X-216350D02*
D03*
X-229050D02*
D03*
X-190950Y-7000D02*
D03*
X-203650D02*
D03*
X-216350D02*
D03*
X-229050D02*
D03*
D28*
X-340000Y161750D02*
D03*
Y178250D02*
D03*
D52*
X-113986Y70000D02*
G03*
X-110000Y74000I-14J4000D01*
G01*
X125116Y100000D02*
G03*
X121176Y96692I0J-4000D01*
G01*
X-144000Y-7000D02*
G03*
X-140000Y-3000I0J4000D01*
G01*
X-169548Y-72700D02*
G03*
X-165548Y-68700I0J4000D01*
G01*
X-246014Y90000D02*
G03*
X-250000Y86014I14J-4000D01*
G01*
X-153986Y90000D02*
G03*
X-150000Y94000I-14J4000D01*
G01*
X-130000Y70000D02*
X-113986D01*
X-112500Y7500D02*
X-57000D01*
X-120000Y0D02*
X-112500Y7500D01*
X54863Y253730D02*
X57403Y256270D01*
X177412D01*
X180000Y258858D01*
X-110000Y80000D02*
Y251387D01*
X-107657Y253730D01*
X54863D01*
X125116Y100000D02*
X170000D01*
X120000Y90000D02*
X121176Y96692D01*
X-165548Y-68700D02*
Y-36994D01*
X-190950Y-7000D02*
X-144000D01*
X-178100Y-72700D02*
X-169548D01*
X180000Y258858D02*
Y276176D01*
Y370000D01*
X40585Y314884D02*
X79293Y276176D01*
X180000D01*
X-229912Y67876D02*
X-229050Y47000D01*
X-190950Y-10750D02*
X-170000Y-31700D01*
X-166143Y-35557D01*
X-203650Y-41202D02*
Y-7000D01*
Y-60000D02*
Y-41202D01*
X-178100D01*
Y-47300D02*
Y-41202D01*
X-140000Y-3000D02*
Y12500D01*
Y290000D01*
X-110000Y74000D02*
Y80000D01*
X-227882Y70000D02*
X-150000D01*
X-246014Y90000D02*
X-153986D01*
X-150000Y94000D02*
Y270000D01*
X-250000Y-60000D02*
Y86014D01*
Y-60000D02*
X-203650D01*
X150000Y370000D02*
X180000D01*
X170000Y100000D02*
X240000Y170000D01*
X350000D01*
X363000Y157000D01*
Y135250D02*
Y157000D01*
X-353116Y220034D02*
X-353000Y219918D01*
Y133375D02*
Y219918D01*
X-340000Y178250D02*
Y190000D01*
D53*
X-71627Y266510D02*
G03*
X-70193Y267102I0J2032D01*
G01*
X35883Y373178D02*
G03*
X36471Y374608I-1444J1429D01*
G01*
X-102542Y266973D02*
G03*
X-92152Y271243I23J14719D01*
G01*
X-15478Y-40000D02*
G03*
X-17500Y-42022I10J-2032D01*
G01*
X-165548Y-36994D02*
G03*
X-166143Y-35557I-2032J0D01*
G01*
X34532Y67750D02*
G03*
X32500Y65718I0J-2032D01*
G01*
Y-61559D02*
G03*
X32504Y-61684I2032J0D01*
G01*
X-44014Y-51780D02*
G03*
X-44608Y-53162I1437J-1437D01*
G01*
X-227882Y70000D02*
G03*
X-229912Y67876I0J-2032D01*
G01*
X-119412Y310588D02*
G03*
X-120000Y309168I1444J-1429D01*
G01*
X-50413Y378756D02*
G03*
X-51836Y378164I10J-2032D01*
G01*
X23998Y-100052D02*
G03*
X23541Y-100000I-457J-1980D01*
G01*
X-240000Y223983D02*
G03*
X-239414Y222570I2032J14D01*
G01*
X263600Y-16400D02*
G03*
X264188Y-14971I-1444J1429D01*
G01*
X-100000Y37856D02*
Y51000D01*
X-110000Y74000D02*
X-108984Y72984D01*
X-126426Y37500D02*
X-57000D01*
X-130000Y40000D02*
X-128926D01*
X-110000Y74000D02*
X-110000Y74000D01*
X-100000Y37856D02*
X-99784Y37641D01*
X-128926Y40000D02*
X-126426Y37500D01*
X-108984Y72984D02*
X-103984D01*
X-100000Y69000D01*
X-3926Y390256D02*
X1350Y395532D01*
Y430000D01*
X-4676Y390256D02*
X-3926D01*
X45642Y395642D02*
Y429292D01*
X36827Y390611D02*
X40612D01*
X36471Y390256D02*
X36827Y390611D01*
X40612D02*
X45642Y395642D01*
Y429292D02*
X46350Y430000D01*
X-73490Y266510D02*
X-71627D01*
X-70193Y267102D02*
X-62898D01*
X35883Y373178D02*
X35883Y373178D01*
X-7295Y330000D02*
X35883Y373178D01*
X-20000Y328810D02*
X-18810Y330000D01*
X-20000Y310000D02*
Y328810D01*
X-62898Y267102D02*
X-20000Y310000D01*
X-18810Y330000D02*
X-7295D01*
X57000Y7500D02*
X57128Y7372D01*
X83636D02*
X84250Y6758D01*
X57128Y7372D02*
X83636D01*
X130000Y-330000D02*
Y12500D01*
X57000D02*
X130000D01*
X-91713Y23951D02*
Y32500D01*
X-92163Y23502D02*
X-91713Y23951D01*
X-129971Y17500D02*
X-57000D01*
X-140000Y12500D02*
X-57000D01*
X-135389Y22918D02*
X-129971Y17500D01*
X-78698Y51000D02*
X-74714Y47016D01*
X-80000Y51000D02*
X-78698D01*
X-80000Y260000D02*
X-73490Y266510D01*
X-74714Y42786D02*
Y47016D01*
X-102562Y266974D02*
X-102562Y266974D01*
X10018Y372811D02*
X10612Y373405D01*
X10615Y374244D01*
X-102562Y266974D02*
X-102542Y266973D01*
X2076Y326584D02*
X15510D01*
X18926Y330000D01*
X20000D01*
X36471Y374608D02*
Y378756D01*
X-248779Y331221D02*
X-213609D01*
X-260000Y320000D02*
X-248779Y331221D01*
X-15478Y-40000D02*
X30000D01*
X-15478D02*
X-15478D01*
X-17500Y-57000D02*
Y-42022D01*
X37500Y-170000D02*
Y-79500D01*
X15185Y314815D02*
X40790Y289210D01*
Y264797D02*
Y289210D01*
X22388Y-63273D02*
X22500Y-63161D01*
X20382Y-66146D02*
X22388Y-64140D01*
X19265Y-70065D02*
X20382Y-68948D01*
Y-66146D01*
X22500Y-63161D02*
Y-57000D01*
X9293Y-68233D02*
X11579Y-70148D01*
X12973Y-70622D02*
X19265Y-70065D01*
X25690Y-68314D02*
Y-64641D01*
X12145Y-70622D02*
X12973D01*
X22388Y-64140D02*
X22388Y-63273D01*
X25668Y-68335D02*
X25690Y-68314D01*
X11579Y-70148D02*
X12145Y-70622D01*
X87423Y-16388D02*
X90000Y-18965D01*
Y-20000D02*
Y-18965D01*
X57128Y-22372D02*
X70971D01*
X57000Y-17500D02*
X67853D01*
X68965Y-16388D02*
X87423D01*
X70971Y-22372D02*
X71670Y-21674D01*
X57000Y-22500D02*
X57128Y-22372D01*
X67853Y-17500D02*
X68965Y-16388D01*
X45477Y-19278D02*
X45816Y-18939D01*
X34714Y-19616D02*
X35053Y-19278D01*
X45477D01*
X31190Y7500D02*
X47250D01*
X29428Y5738D02*
X31190Y7500D01*
X30000Y-40000D02*
Y-22378D01*
X29428Y-21806D02*
Y5738D01*
Y-21806D02*
X30000Y-22378D01*
Y-40000D02*
X37500D01*
X35286Y-29651D02*
X36123D01*
X151420Y79748D02*
X155500D01*
X174020Y61228D01*
X28690Y80000D02*
X150962D01*
X27500Y78810D02*
X28690Y80000D01*
X27500Y57000D02*
Y78810D01*
X150962Y80000D02*
X151420Y79748D01*
X32500Y57000D02*
Y65718D01*
X34532Y67750D02*
X147750D01*
X37430Y-79500D02*
X40000Y-76930D01*
X43435Y-66300D02*
X44033Y-67803D01*
X37500Y-57000D02*
X39405Y-58905D01*
X40000Y-59500D01*
X43512Y-62853D02*
X43764Y-55788D01*
X40000Y-76930D02*
Y-59500D01*
X43435Y-66300D02*
X43512Y-62853D01*
X44033Y-67803D02*
X48781Y-72551D01*
X-110582Y0D02*
X-110000D01*
X-115286Y-12190D02*
Y-4704D01*
X-110582Y0D01*
X-112190Y-15286D02*
X-105324D01*
X-102538Y-12500D02*
X-57000D01*
X-105324Y-15286D02*
X-102538Y-12500D01*
X-115286Y-12190D02*
X-112190Y-15286D01*
X-110000Y-10000D02*
X-108926D01*
X-106426Y-7500D01*
X-57000D01*
X60000Y250000D02*
X70000Y240000D01*
X-2863Y266049D02*
Y306522D01*
X-20017Y266200D02*
X-20000Y280000D01*
X10615Y374244D02*
X10628Y378756D01*
X25690Y-64641D02*
X27500Y-62831D01*
Y-57000D01*
X50000Y160000D02*
Y200000D01*
X-70000Y240000D02*
X10000D01*
X50000Y200000D01*
X-86415Y314884D02*
X-65438Y335861D01*
X32500Y-61559D02*
Y-57000D01*
X32504Y-61684D02*
X32932Y-68623D01*
X37500Y-57000D02*
Y-40000D01*
X-44877Y-64092D02*
X-44608Y-53162D01*
X-44014Y-51780D02*
X-30000Y-37766D01*
Y-20000D01*
X-7500Y-57000D02*
Y-45976D01*
X15185Y314815D02*
Y314884D01*
X70000Y180000D02*
Y240000D01*
Y180000D02*
X70096Y179904D01*
X-10215Y313874D02*
Y314884D01*
Y313874D02*
X-2863Y306522D01*
X70000Y-30000D02*
X80000D01*
X57000Y-27500D02*
X67500D01*
X70000Y-30000D01*
X65985Y395985D02*
X80000Y410000D01*
X65985Y314884D02*
Y395985D01*
X-227882Y70000D02*
X-227882Y70000D01*
X47250Y7500D02*
X57000D01*
X-120000Y80000D02*
Y309168D01*
X-50403Y378756D02*
X-4676D01*
X-50413Y378756D02*
X-50403Y378756D01*
X-119412Y310588D02*
X-51836Y378164D01*
X90000Y-98810D02*
Y-20000D01*
X88810Y-100000D02*
X90000Y-98810D01*
X50000Y-100000D02*
X88810D01*
X23998Y-100052D02*
X30592Y-101573D01*
X-10000Y-100000D02*
X23541D01*
X-20000Y-90000D02*
X-10000Y-100000D01*
X-40000Y-90000D02*
X-20000D01*
X50000D02*
X57000Y-83000D01*
Y-37500D01*
X24089Y-90381D02*
X27764Y-94056D01*
X-4193Y-90381D02*
X24089D01*
X-14574Y-80000D02*
X-4193Y-90381D01*
X-80000Y-80000D02*
X-14574D01*
X36123Y-29651D02*
X38972Y-32500D01*
X57000D01*
X-40000Y-40000D02*
Y-30000D01*
X-50000Y-50000D02*
X-40000Y-40000D01*
X-12500Y-67500D02*
X-10000Y-70000D01*
X-12500Y-67500D02*
Y-57000D01*
X-130000Y80000D02*
Y90000D01*
X-135389Y74611D02*
X-130000Y80000D01*
X-135389Y22918D02*
Y74611D01*
X-112512Y-32500D02*
X-57000D01*
X-113702Y-33690D02*
X-112512Y-32500D01*
X-113702Y-59102D02*
Y-33690D01*
X-127300Y-72700D02*
X-113702Y-59102D01*
X-57000Y-47300D02*
Y-37500D01*
X-101900Y-47300D02*
X-57000D01*
X-37500Y-72700D02*
Y-57000D01*
X-101900Y-72700D02*
X-37500D01*
X-190950Y-10750D02*
Y-7000D01*
X-90533Y-22628D02*
X-57128D01*
X-90763Y-22859D02*
X-90533Y-22628D01*
X-57128D02*
X-57000Y-22500D01*
X-101488Y-20000D02*
X-98988Y-17500D01*
X-57000D01*
X-102562Y-20000D02*
X-101488D01*
X-56997Y7497D02*
X-43442D01*
X-57000Y7500D02*
X-56997Y7497D01*
X-43442D02*
X-43439Y7494D01*
X45560Y2372D02*
X56872D01*
X44909Y1722D02*
X45560Y2372D01*
X56872D02*
X57000Y2500D01*
X47250Y32500D02*
X57000D01*
X47250Y7500D02*
Y32500D01*
X30000Y-170000D02*
X37500D01*
X-127500Y-210000D02*
Y-192500D01*
Y-247500D02*
Y-210000D01*
X-120000D01*
X57000Y-12500D02*
X100000D01*
Y-220000D02*
Y-12500D01*
X-110000Y-220000D02*
X100000D01*
X-110000D02*
Y-147500D01*
X-127500D02*
X-110000D01*
X57000Y-7500D02*
X110000D01*
Y-237500D02*
Y-7500D01*
X-27500Y-237500D02*
X110000D01*
X57000Y-2500D02*
X120000D01*
Y-300000D02*
Y-2500D01*
X0Y-300000D02*
X120000D01*
X-127500D02*
X-120000D01*
X-127500Y-317500D02*
Y-300000D01*
X130000Y-388810D02*
Y-350000D01*
X128810Y-390000D02*
X130000Y-388810D01*
X-198810Y-390000D02*
X128810D01*
X-200000Y-388810D02*
Y-375924D01*
Y-388810D02*
X-198810Y-390000D01*
X-275924Y-300000D02*
X-200000Y-375924D01*
X-310000Y-300000D02*
X-275924D01*
X-320000Y-290000D02*
X-310000Y-300000D01*
X-320000Y-290000D02*
Y-250000D01*
X-307500Y-237500D01*
X-292500D01*
X152500Y17500D02*
X212500Y-42500D01*
Y-297500D02*
Y-42500D01*
X57000Y17500D02*
X152500D01*
X57000Y22500D02*
X157500D01*
X250000Y-220000D02*
Y-70000D01*
X157500Y22500D02*
X250000Y-70000D01*
X-27500Y-282500D02*
X32500Y-342500D01*
X147500D01*
X212500D02*
X250000Y-305000D01*
Y-265000D01*
Y-220000D02*
X315000D01*
X250000Y-265000D02*
X315000D01*
X147500Y-297500D02*
X212500D01*
X147500Y-342500D02*
X212500D01*
X-127500Y-247500D02*
X-92500Y-282500D01*
Y-327500D02*
Y-282500D01*
X-127500Y-362500D02*
X-92500Y-327500D01*
X-192500Y-192500D02*
X-127500D01*
X-227500Y-327500D02*
X-192500Y-362500D01*
X-227500Y-327500D02*
Y-282500D01*
X-92500D02*
X-27500D01*
X-192500Y-362500D02*
X-127500D01*
X-292500Y-282500D02*
X-227500D01*
X-292500Y-237500D02*
X-227500D01*
X-192500Y-317500D02*
X-127500D01*
X-92500Y-237500D02*
X-27500D01*
X-192500Y-147500D02*
X-127500D01*
X-91713Y32500D02*
X-57000D01*
X-126426D02*
X-91713D01*
X-81190Y80000D02*
X-80000Y78810D01*
Y69000D02*
Y78810D01*
X-110000Y80000D02*
X-81190D01*
X-157000Y47000D02*
X-150000Y40000D01*
X-190950Y47000D02*
X-157000D01*
X-128926Y30000D02*
X-126426Y32500D01*
X-130000Y30000D02*
X-128926D01*
X-200000D02*
X-150000D01*
X-203650Y33650D02*
X-200000Y30000D01*
X-203650Y33650D02*
Y47000D01*
X-216350Y43250D02*
X-190950Y-3250D01*
X-216350Y43250D02*
Y47000D01*
X-190950Y-7000D02*
Y-3250D01*
X-221500Y-40000D02*
X-216350D01*
Y-7000D01*
X-238500Y-40000D02*
Y-7000D01*
X-229050D01*
X-27500Y-62650D02*
Y-57000D01*
X-30000Y-70000D02*
X-27500Y-62650D01*
X-22500D02*
X-20000Y-70000D01*
X-22500Y-62650D02*
Y-57000D01*
X170000Y30000D02*
X180563Y40563D01*
Y40563D01*
X-140000Y350000D02*
X-120000Y370000D01*
X-150000Y350000D02*
X-140000D01*
X-150000Y370000D02*
Y390000D01*
X-140000Y400000D01*
X-240000Y250000D02*
X-217000D01*
X-240000D02*
Y260000D01*
Y223983D02*
Y250000D01*
X-216844Y200000D02*
X-216500D01*
X-228218Y211373D02*
X-216844Y200000D01*
X-239414Y222570D02*
X-228218Y211373D01*
X-250000Y189591D02*
X-228218Y211373D01*
X-250000Y170000D02*
Y189591D01*
X-230000Y180000D02*
X-217750D01*
X-340000Y260000D02*
X-240000D01*
X-203500Y181250D02*
X-202250Y180000D01*
X-203500Y181250D02*
Y200000D01*
X-226442Y227307D02*
X-213888D01*
X-213621Y227040D01*
X263600Y-16400D02*
X263600Y-16400D01*
X258451Y-21549D02*
X263600Y-16400D01*
X264188Y-14971D02*
Y155139D01*
X350000D01*
Y135250D02*
Y155139D01*
X230000Y-30000D02*
X270000D01*
Y150000D01*
X343500D01*
Y135250D02*
Y150000D01*
D54*
X16350Y395227D02*
Y430000D01*
X11692Y390570D02*
X16350Y395227D01*
D55*
X-340000Y161750D02*
X-332762Y154512D01*
X-328438D01*
X-327000Y133375D02*
Y153075D01*
X-328438Y154512D02*
X-327000Y153075D01*
X-328438Y154512D02*
Y171295D01*
D56*
X290000Y140000D02*
X332250D01*
X280000Y130000D02*
X290000Y140000D01*
X280000Y80000D02*
Y130000D01*
X332250Y140000D02*
X337000Y135250D01*
D57*
X-192500Y-147500D02*
D03*
X-92500Y-237500D02*
D03*
X-192500Y-317500D02*
D03*
X-292500Y-237500D02*
D03*
X147500Y-297500D02*
D03*
X250000Y-220000D02*
D03*
D58*
X-127500Y-147500D02*
D03*
X-192500Y-192500D02*
D03*
X-127500D02*
D03*
X-27500Y-282500D02*
D03*
X-92500D02*
D03*
X-27500Y-237500D02*
D03*
X-127500Y-317500D02*
D03*
X-192500Y-362500D02*
D03*
X-127500D02*
D03*
X-227500Y-282500D02*
D03*
X-292500D02*
D03*
X-227500Y-237500D02*
D03*
X212500Y-297500D02*
D03*
X147500Y-342500D02*
D03*
X212500D02*
D03*
X315000Y-265000D02*
D03*
X250000D02*
D03*
X315000Y-220000D02*
D03*
D59*
X-101900Y-72700D02*
D03*
X-127300D02*
D03*
X-152700D02*
D03*
X-178100D02*
D03*
X-101900Y-47300D02*
D03*
X-127300D02*
D03*
X-152700D02*
D03*
D60*
X-178100D02*
D03*
D61*
X-86415Y314884D02*
D03*
D62*
X91385D02*
D03*
X65985D02*
D03*
X-35615D02*
D03*
X-61015D02*
D03*
X40585D02*
D03*
X-10215D02*
D03*
X15185D02*
D03*
D63*
X370500Y129375D02*
D03*
X329500D02*
D03*
X-319500Y127500D02*
D03*
X-360500D02*
D03*
D64*
X46350Y430000D02*
D03*
D03*
D65*
X31350D02*
D03*
D03*
X16350D02*
D03*
D03*
X1350D02*
D03*
D03*
D66*
X-80000Y440000D02*
D03*
X-50000D02*
D03*
X120000D02*
D03*
X90000D02*
D03*
D67*
X-130000Y70000D02*
D03*
Y40000D02*
D03*
X84250Y6758D02*
D03*
X-92163Y23502D02*
D03*
X-80000Y260000D02*
D03*
X-74714Y42786D02*
D03*
X2076Y326584D02*
D03*
X-213609Y331221D02*
D03*
X40790Y264797D02*
D03*
X25668Y-68335D02*
D03*
X71670Y-21674D02*
D03*
X45816Y-18939D02*
D03*
X34714Y-19616D02*
D03*
X35286Y-29651D02*
D03*
X174020Y61228D02*
D03*
X147750Y67750D02*
D03*
X43764Y-55788D02*
D03*
X-120000Y0D02*
D03*
X-110000D02*
D03*
Y-10000D02*
D03*
X60000Y250000D02*
D03*
X-2863Y266049D02*
D03*
X-20017Y266200D02*
D03*
X48781Y-72551D02*
D03*
X50000Y160000D02*
D03*
X-70000Y240000D02*
D03*
X-65438Y335861D02*
D03*
X-150000Y270000D02*
D03*
X32932Y-68623D02*
D03*
X9293Y-68233D02*
D03*
X-44877Y-64092D02*
D03*
X-30000Y-20000D02*
D03*
X-7500Y-45976D02*
D03*
X-20000Y280000D02*
D03*
X70096Y179904D02*
D03*
X80000Y-30000D02*
D03*
Y410000D02*
D03*
X50000Y-100000D02*
D03*
X30592Y-101573D02*
D03*
X-40000Y-90000D02*
D03*
X50000D02*
D03*
X27764Y-94056D02*
D03*
X-80000Y-80000D02*
D03*
X-40000Y-30000D02*
D03*
X-50000Y-50000D02*
D03*
X-10000Y-70000D02*
D03*
X37430Y-79500D02*
D03*
X-130000Y90000D02*
D03*
X-90763Y-22859D02*
D03*
X-102562Y-20000D02*
D03*
Y266974D02*
D03*
X-120000Y80000D02*
D03*
X-43439Y7494D02*
D03*
X44909Y1722D02*
D03*
X30000Y-170000D02*
D03*
X-120000Y-210000D02*
D03*
X0Y-300000D02*
D03*
X-120000D02*
D03*
X130000Y-330000D02*
D03*
Y-350000D02*
D03*
X-150000Y40000D02*
D03*
X-130000Y30000D02*
D03*
X-150000D02*
D03*
Y70000D02*
D03*
X-140000Y290000D02*
D03*
X150000Y370000D02*
D03*
X20000Y330000D02*
D03*
X-20000Y-70000D02*
D03*
X-30000D02*
D03*
X120000Y90000D02*
D03*
X170000Y30000D02*
D03*
X180563Y40563D02*
D03*
X-260000Y320000D02*
D03*
X-120000Y370000D02*
D03*
X-150000Y350000D02*
D03*
Y370000D02*
D03*
X-140000Y400000D02*
D03*
X-353116Y220034D02*
D03*
X-340000Y260000D02*
D03*
X-250000Y170000D02*
D03*
X-230000Y180000D02*
D03*
X-226442Y227307D02*
D03*
X-328438Y171295D02*
D03*
X-340000Y190000D02*
D03*
X258451Y-21549D02*
D03*
X230000Y-30000D02*
D03*
X280000Y80000D02*
D03*
M02*
