M48
;Layer_Color=9474304
;FILE_FORMAT=4:4
METRIC,LZ
;TYPE=PLATED
T1F00S00C0.3000
T2F00S00C0.7500
T3F00S00C0.8900
T4F00S00C1.0000
;TYPE=NON_PLATED
T5F00S00C0.5500
T6F00S00C0.9000
%
T01
X0013Y-0035
Y-0033
X0008Y-0003
X0007167Y-00021674
X0008425Y00006758
X0023Y-0003
X00258451Y-00021549
X00045816Y-00018939
X00034714Y-00019616
X00035286Y-00029651
X00043764Y-00055788
X00048781Y-00072551
X0003743Y-000795
X00032932Y-00068623
X00025668Y-00068335
X00009293Y-00068233
X-0001Y-0007
X-0002
X-0003
X-00044877Y-00064092
X-0005Y-0005
X-0004Y-0003
X-0003Y-0002
X-00043439Y00007494
X-00092163Y00023502
X-0011Y0
X-0012
X-0011Y-0001
X-00102562Y-0002
X-00090763Y-00022859
X-0008Y-0008
X-0004Y-0009
X00027764Y-00094056
X00030592Y-00101573
X0005Y-001
Y-0009
X00044909Y00001722
X-000075Y-00045976
X0003Y-0017
X0Y-003
X-0012
Y-0021
X-00353116Y00220034
X-0034Y0019
X-00328438Y00171295
X-0025Y0017
X-0023Y0018
X-00226442Y00227307
X-00213609Y00331221
X-0026Y0032
X-0015Y0035
Y0037
X-0012
X-0014Y004
Y0029
X-0015Y0027
X-00102562Y00266974
X-0008Y0026
X-0007Y0024
X-00020017Y002662
X-0002Y0028
X-00002863Y00266049
X0004079Y00264797
X0002Y0033
X00002076Y00326584
X-00065438Y00335861
X0005Y0016
X-00074714Y00042786
X-0013Y0004
Y0003
X-0015
Y0004
Y0007
X-0013
Y0009
X-0012Y0008
X-0034Y0026
X0006Y0025
X00070096Y00179904
X0012Y0009
X0014775Y0006775
X0017402Y00061228
X00180563Y00040563
X0017Y0003
X0028Y0008
X0015Y0037
X0008Y0041
T02
X0000135Y0043
X0001635
X0003135
X0004635
T03
X-00086415Y00314884
X-00061015
X-00035615
X-00010215
X00015185
X00040585
X00065985
X00091385
T04
X001475Y-003425
Y-002975
X002125
Y-003425
X0025Y-00265
Y-0022
X00315
Y-00265
X-000275Y-002825
Y-002375
X-000925
Y-002825
X-001275Y-003175
Y-003625
X-001925
Y-003175
X-002275Y-002825
Y-002375
X-002925
Y-002825
X-001925Y-001925
Y-001475
X-001275
Y-001925
X-001273Y-000727
X-001019
Y-000473
X-001273
X-001527
Y-000727
X-001781
Y-000473
T05
X-003605Y001275
X-003195
X003295Y00129375
X003705
T06
X0009Y0044
X0012
X-0005
X-0008
M30
